<?xml version="1.0" standalone="no"?>
 <!DOCTYPE svg PUBLIC "-//W3C//DTD SVG 1.1//EN" 
 "http://www.w3.org/Graphics/SVG/1.1/DTD/svg11.dtd"> 
<svg xmlns="http://www.w3.org/2000/svg" version="1.1" 
    width="5.45084cm" height="3.33756cm" viewBox="0 0 21460 13140 ">
<title>SVG Picture created as ESP01 Motion Sensor-brd.svg date 2018/01/11 11:46:18 </title>
  <desc>Picture generated by PCBNEW </desc>
<g style="fill:#000000; fill-opacity:1;stroke:#000000; stroke-opacity:1;
stroke-linecap:round; stroke-linejoin:round; "
 transform="translate(0 0) scale(1 1)">
</g>
<g style="fill:#000000; fill-opacity:0.0; 
stroke:#000000; stroke-width:-0.000393701; stroke-opacity:1; 
stroke-linecap:round; stroke-linejoin:round;">
</g>
<g style="fill:#840000; fill-opacity:0.0; 
stroke:#840000; stroke-width:-0.000393701; stroke-opacity:1; 
stroke-linecap:round; stroke-linejoin:round;">
</g>
<g style="fill:#840000; fill-opacity:0.0; 
stroke:#840000; stroke-width:0; stroke-opacity:1; 
stroke-linecap:round; stroke-linejoin:round;">
</g>
<g style="fill:#840000; fill-opacity:1.0; 
stroke:#840000; stroke-width:0; stroke-opacity:1; 
stroke-linecap:round; stroke-linejoin:round;">
<polyline style="fill-rule:evenodd;"
points="10552,6824
10946,6824
10946,7178
10552,7178
10552,6824
" /> 
<polyline style="fill-rule:evenodd;"
points="9922,6824
10316,6824
10316,7178
9922,7178
9922,6824
" /> 
<polyline style="fill-rule:evenodd;"
points="10552,8438
10946,8438
10946,8792
10552,8792
10552,8438
" /> 
<polyline style="fill-rule:evenodd;"
points="9922,8438
10316,8438
10316,8792
9922,8792
9922,8438
" /> 
<polyline style="fill-rule:evenodd;"
points="13390,10820
12878,10820
12878,10544
13390,10544
13390,10820
" /> 
<polyline style="fill-rule:evenodd;"
points="13390,10072
12878,10072
12878,9796
13390,9796
13390,10072
" /> 
<polyline style="fill-rule:evenodd;"
points="7237,6123
7237,5493
7631,5493
7631,6123
7237,6123
" /> 
<polyline style="fill-rule:evenodd;"
points="8418,6123
8418,5493
8812,5493
8812,6123
8418,6123
" /> 
<polyline style="fill-rule:evenodd;"
points="12031,5493
12031,6123
11637,6123
11637,5493
12031,5493
" /> 
<polyline style="fill-rule:evenodd;"
points="10850,5493
10850,6123
10456,6123
10456,5493
10850,5493
" /> 
<polyline style="fill-rule:evenodd;"
points="5617,3037
5617,3367
5287,3367
5287,3037
5617,3037
" /> 
<circle cx="5196.55" cy="2808.66" r="165.354" /> 
</g>
<g style="fill:#840000; fill-opacity:1.0; 
stroke:#840000; stroke-width:39.3701; stroke-opacity:1; 
stroke-linecap:round; stroke-linejoin:round;">
</g>
<g style="fill:#840000; fill-opacity:1.0; 
stroke:#840000; stroke-width:0; stroke-opacity:1; 
stroke-linecap:round; stroke-linejoin:round;">
<circle cx="4940.65" cy="3202.36" r="165.354" /> 
</g>
<g style="fill:#840000; fill-opacity:1.0; 
stroke:#840000; stroke-width:39.3701; stroke-opacity:1; 
stroke-linecap:round; stroke-linejoin:round;">
</g>
<g style="fill:#840000; fill-opacity:1.0; 
stroke:#840000; stroke-width:0; stroke-opacity:1; 
stroke-linecap:round; stroke-linejoin:round;">
<circle cx="4684.74" cy="2808.66" r="165.354" /> 
</g>
<g style="fill:#840000; fill-opacity:1.0; 
stroke:#840000; stroke-width:39.3701; stroke-opacity:1; 
stroke-linecap:round; stroke-linejoin:round;">
</g>
<g style="fill:#840000; fill-opacity:1.0; 
stroke:#840000; stroke-width:0; stroke-opacity:1; 
stroke-linecap:round; stroke-linejoin:round;">
<circle cx="4428.83" cy="3202.36" r="165.354" /> 
</g>
<g style="fill:#840000; fill-opacity:1.0; 
stroke:#840000; stroke-width:39.3701; stroke-opacity:1; 
stroke-linecap:round; stroke-linejoin:round;">
</g>
<g style="fill:#840000; fill-opacity:1.0; 
stroke:#840000; stroke-width:334.646; stroke-opacity:1; 
stroke-linecap:round; stroke-linejoin:round;">
</g>
<g style="fill:#840000; fill-opacity:0.0; 
stroke:#840000; stroke-width:334.646; stroke-opacity:1; 
stroke-linecap:round; stroke-linejoin:round;">
<path d="M6348 3312
L6348 2918
" />
<path d="M3533 3312
L3533 2918
" />
</g>
<g style="fill:#840000; fill-opacity:0.0; 
stroke:#840000; stroke-width:0; stroke-opacity:1; 
stroke-linecap:round; stroke-linejoin:round;">
</g>
<g style="fill:#840000; fill-opacity:1.0; 
stroke:#840000; stroke-width:0; stroke-opacity:1; 
stroke-linecap:round; stroke-linejoin:round;">
<polyline style="fill-rule:evenodd;"
points="8261,3246
8261,2774
9128,2774
9128,3246
8261,3246
" /> 
<polyline style="fill-rule:evenodd;"
points="8261,5042
8261,4569
9128,4569
9128,5042
8261,5042
" /> 
<polyline style="fill-rule:evenodd;"
points="9915,5050
9915,2766
12435,2766
12435,5050
9915,5050
" /> 
<polyline style="fill-rule:evenodd;"
points="11234,5050
11234,3967
12435,3967
12435,5050
11234,5050
" /> 
<polyline style="fill-rule:evenodd;"
points="9915,3849
9915,2766
11116,2766
11116,3849
9915,3849
" /> 
<polyline style="fill-rule:evenodd;"
points="11234,3849
11234,2766
12435,2766
12435,3849
11234,3849
" /> 
<polyline style="fill-rule:evenodd;"
points="9915,5050
9915,3967
11116,3967
11116,5050
9915,5050
" /> 
<polyline style="fill-rule:evenodd;"
points="16269,10893
15600,10893
15600,10224
16269,10224
16269,10893
" /> 
</g>
<g style="fill:#840000; fill-opacity:1.0; 
stroke:#840000; stroke-width:669.291; stroke-opacity:1; 
stroke-linecap:round; stroke-linejoin:round;">
</g>
<g style="fill:#840000; fill-opacity:0.0; 
stroke:#840000; stroke-width:669.291; stroke-opacity:1; 
stroke-linecap:round; stroke-linejoin:round;">
<path d="M15934 11558
L15934 11558
" />
<path d="M16934 10558
L16934 10558
" />
<path d="M16934 11558
L16934 11558
" />
<path d="M17934 10558
L17934 10558
" />
<path d="M17934 11558
L17934 11558
" />
<path d="M18934 10558
L18934 10558
" />
<path d="M18934 11558
L18934 11558
" />
</g>
<g style="fill:#840000; fill-opacity:0.0; 
stroke:#840000; stroke-width:0; stroke-opacity:1; 
stroke-linecap:round; stroke-linejoin:round;">
</g>
<g style="fill:#840000; fill-opacity:1.0; 
stroke:#840000; stroke-width:0; stroke-opacity:1; 
stroke-linecap:round; stroke-linejoin:round;">
<polyline style="fill-rule:evenodd;"
points="14190,10820
13678,10820
13678,10544
14190,10544
14190,10820
" /> 
<polyline style="fill-rule:evenodd;"
points="14190,10072
13678,10072
13678,9796
14190,9796
14190,10072
" /> 
<polyline style="fill-rule:evenodd;"
points="20190,11444
19678,11444
19678,11168
20190,11168
20190,11444
" /> 
<polyline style="fill-rule:evenodd;"
points="20190,10696
19678,10696
19678,10420
20190,10420
20190,10696
" /> 
<polyline style="fill-rule:evenodd;"
points="2813,7939
2813,7270
3482,7270
3482,7939
2813,7939
" /> 
</g>
<g style="fill:#840000; fill-opacity:1.0; 
stroke:#840000; stroke-width:669.291; stroke-opacity:1; 
stroke-linecap:round; stroke-linejoin:round;">
</g>
<g style="fill:#840000; fill-opacity:0.0; 
stroke:#840000; stroke-width:669.291; stroke-opacity:1; 
stroke-linecap:round; stroke-linejoin:round;">
<path d="M3147 6604
L3147 6604
" />
<path d="M3147 5604
L3147 5604
" />
</g>
<g style="fill:#C2C2C2; fill-opacity:0.0; 
stroke:#C2C2C2; stroke-width:669.291; stroke-opacity:1; 
stroke-linecap:round; stroke-linejoin:round;">
</g>
<g style="fill:#C2C2C2; fill-opacity:1.0; 
stroke:#C2C2C2; stroke-width:0; stroke-opacity:1; 
stroke-linecap:round; stroke-linejoin:round;">
<circle cx="7074.9" cy="12086.6" r="492.126" /> 
</g>
<g style="fill:#C2C2C2; fill-opacity:1.0; 
stroke:#C2C2C2; stroke-width:39.3701; stroke-opacity:1; 
stroke-linecap:round; stroke-linejoin:round;">
</g>
<g style="fill:#C2C2C2; fill-opacity:1.0; 
stroke:#C2C2C2; stroke-width:0; stroke-opacity:1; 
stroke-linecap:round; stroke-linejoin:round;">
<circle cx="7074.9" cy="1062.99" r="492.126" /> 
</g>
<g style="fill:#C2C2C2; fill-opacity:1.0; 
stroke:#C2C2C2; stroke-width:39.3701; stroke-opacity:1; 
stroke-linecap:round; stroke-linejoin:round;">
</g>
<g style="fill:#C2C2C2; fill-opacity:1.0; 
stroke:#C2C2C2; stroke-width:0; stroke-opacity:1; 
stroke-linecap:round; stroke-linejoin:round;">
<circle cx="10122.2" cy="5825.19" r="157.48" /> 
</g>
<g style="fill:#C2C2C2; fill-opacity:1.0; 
stroke:#C2C2C2; stroke-width:39.3701; stroke-opacity:1; 
stroke-linecap:round; stroke-linejoin:round;">
</g>
<g style="fill:#C2C2C2; fill-opacity:1.0; 
stroke:#C2C2C2; stroke-width:0; stroke-opacity:1; 
stroke-linecap:round; stroke-linejoin:round;">
<circle cx="9184.74" cy="5808.66" r="157.48" /> 
</g>
<g style="fill:#C2C2C2; fill-opacity:1.0; 
stroke:#C2C2C2; stroke-width:39.3701; stroke-opacity:1; 
stroke-linecap:round; stroke-linejoin:round;">
</g>
<g style="fill:#C2C2C2; fill-opacity:1.0; 
stroke:#C2C2C2; stroke-width:0; stroke-opacity:1; 
stroke-linecap:round; stroke-linejoin:round;">
<circle cx="7839.68" cy="3009.92" r="157.48" /> 
</g>
<g style="fill:#C2C2C2; fill-opacity:1.0; 
stroke:#C2C2C2; stroke-width:39.3701; stroke-opacity:1; 
stroke-linecap:round; stroke-linejoin:round;">
</g>
<g style="fill:#840000; fill-opacity:1.0; 
stroke:#840000; stroke-width:39.3701; stroke-opacity:1; 
stroke-linecap:round; stroke-linejoin:round;">
</g>
<g style="fill:#840000; fill-opacity:1.0; 
stroke:#840000; stroke-width:98.4252; stroke-opacity:1; 
stroke-linecap:round; stroke-linejoin:round;">
</g>
<g style="fill:#840000; fill-opacity:0.0; 
stroke:#840000; stroke-width:98.4252; stroke-opacity:1; 
stroke-linecap:round; stroke-linejoin:round;">
<path d="M3147 5604
L7347 5604
" />
<path d="M7347 5604
L7434 5692
" />
<path d="M7434 5692
L7434 5808
" />
</g>
<g style="fill:#840000; fill-opacity:0.0; 
stroke:#840000; stroke-width:196.85; stroke-opacity:1; 
stroke-linecap:round; stroke-linejoin:round;">
<path d="M5452 3202
L5452 4389
" />
<path d="M5452 4389
L5869 4805
" />
<path d="M5869 4805
L7434 4805
" />
<path d="M7434 4805
L8065 4805
" />
<path d="M7434 5808
L7434 4805
" />
<path d="M8065 4805
L8694 4805
" />
</g>
<g style="fill:#840000; fill-opacity:0.0; 
stroke:#840000; stroke-width:98.4252; stroke-opacity:1; 
stroke-linecap:round; stroke-linejoin:round;">
<path d="M10119 5827
L10122 5825
" />
</g>
<g style="fill:#840000; fill-opacity:0.0; 
stroke:#840000; stroke-width:196.85; stroke-opacity:1; 
stroke-linecap:round; stroke-linejoin:round;">
<path d="M10138 5808
L10122 5825
" />
</g>
<g style="fill:#840000; fill-opacity:0.0; 
stroke:#840000; stroke-width:98.4252; stroke-opacity:1; 
stroke-linecap:round; stroke-linejoin:round;">
<path d="M10119 7001
L10119 5827
" />
</g>
<g style="fill:#840000; fill-opacity:0.0; 
stroke:#840000; stroke-width:196.85; stroke-opacity:1; 
stroke-linecap:round; stroke-linejoin:round;">
<path d="M10653 5808
L10138 5808
" />
</g>
<g style="fill:#840000; fill-opacity:0.0; 
stroke:#840000; stroke-width:98.4252; stroke-opacity:1; 
stroke-linecap:round; stroke-linejoin:round;">
<path d="M10119 8615
L10119 7001
" />
</g>
<g style="fill:#840000; fill-opacity:0.0; 
stroke:#840000; stroke-width:196.85; stroke-opacity:1; 
stroke-linecap:round; stroke-linejoin:round;">
<path d="M8615 5808
L9184 5808
" />
<path d="M8694 3010
L7840 3010
" />
<path d="M7840 3010
L7839 3009
" />
</g>
<g style="fill:#840000; fill-opacity:0.0; 
stroke:#840000; stroke-width:98.4252; stroke-opacity:1; 
stroke-linecap:round; stroke-linejoin:round;">
<path d="M19934 10558
L18934 10558
" />
<path d="M13134 9934
L13134 9496
" />
<path d="M13934 9934
L13934 9495
" />
</g>
<g style="fill:#840000; fill-opacity:0.0; 
stroke:#840000; stroke-width:196.85; stroke-opacity:1; 
stroke-linecap:round; stroke-linejoin:round;">
<path d="M12384 9496
L13134 9496
" />
<path d="M13134 9496
L13933 9496
" />
<path d="M12058 9496
L12384 9496
" />
</g>
<g style="fill:#840000; fill-opacity:0.0; 
stroke:#840000; stroke-width:98.4252; stroke-opacity:1; 
stroke-linecap:round; stroke-linejoin:round;">
<path d="M12334 9546
L12384 9496
" />
</g>
<g style="fill:#840000; fill-opacity:0.0; 
stroke:#840000; stroke-width:196.85; stroke-opacity:1; 
stroke-linecap:round; stroke-linejoin:round;">
<path d="M13933 9496
L13934 9495
" />
<path d="M11834 5808
L11834 9273
" />
<path d="M11834 9273
L12058 9496
" />
<path d="M12058 9496
L12058 9495
" />
<path d="M17871 9495
L13934 9495
" />
<path d="M18934 10558
L17871 9495
" />
<path d="M11834 5808
L11834 4508
" />
</g>
<g style="fill:#840000; fill-opacity:0.0; 
stroke:#840000; stroke-width:98.4252; stroke-opacity:1; 
stroke-linecap:round; stroke-linejoin:round;">
<path d="M19934 11958
L19761 12132
" />
<path d="M19761 12132
L17934 12132
" />
<path d="M19934 11306
L19934 11958
" />
<path d="M4480 7604
L3147 7604
" />
<path d="M9186 12310
L4480 7604
" />
<path d="M17756 12310
L9186 12310
" />
<path d="M17934 12132
L17756 12310
" />
<path d="M17934 11558
L17934 12132
" />
<path d="M13184 10682
L13184 10955
" />
<path d="M16408 10033
L16934 10558
" />
<path d="M13184 10955
L13316 11086
" />
<path d="M13316 11086
L14379 11086
" />
<path d="M14379 11086
L15433 10033
" />
<path d="M15433 10033
L16408 10033
" />
<path d="M16934 10558
L16934 10558
" />
<path d="M16600 11893
L16934 11558
" />
<path d="M9259 12133
L16360 12133
" />
<path d="M16360 12133
L16600 11893
" />
<path d="M3147 6604
L3731 6604
" />
<path d="M3731 6604
L9259 12133
" />
<path d="M10749 7001
L10749 7277
" />
<path d="M10749 7277
L10749 8615
" />
<path d="M13934 10682
L13934 10446
" />
<path d="M13934 10446
L13795 10307
" />
<path d="M13795 10307
L12103 10307
" />
<path d="M12103 10307
L10749 8953
" />
<path d="M10749 8953
L10749 8615
" />
<path d="M13934 10682
L14526 10682
" />
<path d="M14526 10682
L15352 9855
" />
<path d="M15352 9855
L15417 9855
" />
<path d="M17934 10558
L17934 10555
" />
<path d="M17934 10555
L17929 10560
" />
<path d="M17929 10560
L17929 10552
" />
<path d="M17929 10552
L17233 9855
" />
<path d="M17233 9855
L15417 9855
" />
</g>
<g style="fill:#FFFFFF; fill-opacity:0.0; 
stroke:#FFFFFF; stroke-width:98.4252; stroke-opacity:1; 
stroke-linecap:round; stroke-linejoin:round;">
</g>
<g style="fill:#FFFFFF; fill-opacity:1.0; 
stroke:#FFFFFF; stroke-width:0; stroke-opacity:1; 
stroke-linecap:round; stroke-linejoin:round;">
<circle cx="7074.9" cy="12086.6" r="393.701" /> 
</g>
<g style="fill:#FFFFFF; fill-opacity:1.0; 
stroke:#FFFFFF; stroke-width:39.3701; stroke-opacity:1; 
stroke-linecap:round; stroke-linejoin:round;">
</g>
<g style="fill:#FFFFFF; fill-opacity:1.0; 
stroke:#FFFFFF; stroke-width:0; stroke-opacity:1; 
stroke-linecap:round; stroke-linejoin:round;">
<circle cx="7074.9" cy="1062.99" r="393.701" /> 
</g>
<g style="fill:#FFFFFF; fill-opacity:1.0; 
stroke:#FFFFFF; stroke-width:39.3701; stroke-opacity:1; 
stroke-linecap:round; stroke-linejoin:round;">
</g>
<g style="fill:#FFFFFF; fill-opacity:1.0; 
stroke:#FFFFFF; stroke-width:0; stroke-opacity:1; 
stroke-linecap:round; stroke-linejoin:round;">
<circle cx="10122.2" cy="5825.19" r="118.11" /> 
</g>
<g style="fill:#FFFFFF; fill-opacity:1.0; 
stroke:#FFFFFF; stroke-width:39.3701; stroke-opacity:1; 
stroke-linecap:round; stroke-linejoin:round;">
</g>
<g style="fill:#FFFFFF; fill-opacity:1.0; 
stroke:#FFFFFF; stroke-width:0; stroke-opacity:1; 
stroke-linecap:round; stroke-linejoin:round;">
<circle cx="9184.74" cy="5808.66" r="118.11" /> 
</g>
<g style="fill:#FFFFFF; fill-opacity:1.0; 
stroke:#FFFFFF; stroke-width:39.3701; stroke-opacity:1; 
stroke-linecap:round; stroke-linejoin:round;">
</g>
<g style="fill:#FFFFFF; fill-opacity:1.0; 
stroke:#FFFFFF; stroke-width:0; stroke-opacity:1; 
stroke-linecap:round; stroke-linejoin:round;">
<circle cx="7839.68" cy="3009.92" r="118.11" /> 
</g>
<g style="fill:#FFFFFF; fill-opacity:1.0; 
stroke:#FFFFFF; stroke-width:39.3701; stroke-opacity:1; 
stroke-linecap:round; stroke-linejoin:round;">
</g>
<g style="fill:#FFFFFF; fill-opacity:1.0; 
stroke:#FFFFFF; stroke-width:0; stroke-opacity:1; 
stroke-linecap:round; stroke-linejoin:round;">
<circle cx="5452.46" cy="3202.36" r="86.6142" /> 
</g>
<g style="fill:#FFFFFF; fill-opacity:1.0; 
stroke:#FFFFFF; stroke-width:39.3701; stroke-opacity:1; 
stroke-linecap:round; stroke-linejoin:round;">
</g>
<g style="fill:#FFFFFF; fill-opacity:1.0; 
stroke:#FFFFFF; stroke-width:0; stroke-opacity:1; 
stroke-linecap:round; stroke-linejoin:round;">
<circle cx="5196.55" cy="2808.66" r="86.6142" /> 
</g>
<g style="fill:#FFFFFF; fill-opacity:1.0; 
stroke:#FFFFFF; stroke-width:39.3701; stroke-opacity:1; 
stroke-linecap:round; stroke-linejoin:round;">
</g>
<g style="fill:#FFFFFF; fill-opacity:1.0; 
stroke:#FFFFFF; stroke-width:0; stroke-opacity:1; 
stroke-linecap:round; stroke-linejoin:round;">
<circle cx="4940.65" cy="3202.36" r="86.6142" /> 
</g>
<g style="fill:#FFFFFF; fill-opacity:1.0; 
stroke:#FFFFFF; stroke-width:39.3701; stroke-opacity:1; 
stroke-linecap:round; stroke-linejoin:round;">
</g>
<g style="fill:#FFFFFF; fill-opacity:1.0; 
stroke:#FFFFFF; stroke-width:0; stroke-opacity:1; 
stroke-linecap:round; stroke-linejoin:round;">
<circle cx="4684.74" cy="2808.66" r="86.6142" /> 
</g>
<g style="fill:#FFFFFF; fill-opacity:1.0; 
stroke:#FFFFFF; stroke-width:39.3701; stroke-opacity:1; 
stroke-linecap:round; stroke-linejoin:round;">
</g>
<g style="fill:#FFFFFF; fill-opacity:1.0; 
stroke:#FFFFFF; stroke-width:0; stroke-opacity:1; 
stroke-linecap:round; stroke-linejoin:round;">
<circle cx="4428.83" cy="3202.36" r="86.6142" /> 
</g>
<g style="fill:#FFFFFF; fill-opacity:1.0; 
stroke:#FFFFFF; stroke-width:39.3701; stroke-opacity:1; 
stroke-linecap:round; stroke-linejoin:round;">
</g>
<g style="fill:#FFFFFF; fill-opacity:1.0; 
stroke:#FFFFFF; stroke-width:137.795; stroke-opacity:1; 
stroke-linecap:round; stroke-linejoin:round;">
</g>
<g style="fill:#FFFFFF; fill-opacity:0.0; 
stroke:#FFFFFF; stroke-width:137.795; stroke-opacity:1; 
stroke-linecap:round; stroke-linejoin:round;">
<path d="M6348 3312
L6348 2918
" />
<path d="M3533 3312
L3533 2918
" />
</g>
<g style="fill:#FFFFFF; fill-opacity:1.0; 
stroke:#FFFFFF; stroke-width:0; stroke-opacity:1; 
stroke-linecap:round; stroke-linejoin:round;">
<circle cx="15934.7" cy="10558.7" r="196.85" /> 
</g>
<g style="fill:#FFFFFF; fill-opacity:1.0; 
stroke:#FFFFFF; stroke-width:39.3701; stroke-opacity:1; 
stroke-linecap:round; stroke-linejoin:round;">
</g>
<g style="fill:#FFFFFF; fill-opacity:1.0; 
stroke:#FFFFFF; stroke-width:0; stroke-opacity:1; 
stroke-linecap:round; stroke-linejoin:round;">
<circle cx="15934.7" cy="11558.7" r="196.85" /> 
</g>
<g style="fill:#FFFFFF; fill-opacity:1.0; 
stroke:#FFFFFF; stroke-width:39.3701; stroke-opacity:1; 
stroke-linecap:round; stroke-linejoin:round;">
</g>
<g style="fill:#FFFFFF; fill-opacity:1.0; 
stroke:#FFFFFF; stroke-width:0; stroke-opacity:1; 
stroke-linecap:round; stroke-linejoin:round;">
<circle cx="16934.7" cy="10558.7" r="196.85" /> 
</g>
<g style="fill:#FFFFFF; fill-opacity:1.0; 
stroke:#FFFFFF; stroke-width:39.3701; stroke-opacity:1; 
stroke-linecap:round; stroke-linejoin:round;">
</g>
<g style="fill:#FFFFFF; fill-opacity:1.0; 
stroke:#FFFFFF; stroke-width:0; stroke-opacity:1; 
stroke-linecap:round; stroke-linejoin:round;">
<circle cx="16934.7" cy="11558.7" r="196.85" /> 
</g>
<g style="fill:#FFFFFF; fill-opacity:1.0; 
stroke:#FFFFFF; stroke-width:39.3701; stroke-opacity:1; 
stroke-linecap:round; stroke-linejoin:round;">
</g>
<g style="fill:#FFFFFF; fill-opacity:1.0; 
stroke:#FFFFFF; stroke-width:0; stroke-opacity:1; 
stroke-linecap:round; stroke-linejoin:round;">
<circle cx="17934.7" cy="10558.7" r="196.85" /> 
</g>
<g style="fill:#FFFFFF; fill-opacity:1.0; 
stroke:#FFFFFF; stroke-width:39.3701; stroke-opacity:1; 
stroke-linecap:round; stroke-linejoin:round;">
</g>
<g style="fill:#FFFFFF; fill-opacity:1.0; 
stroke:#FFFFFF; stroke-width:0; stroke-opacity:1; 
stroke-linecap:round; stroke-linejoin:round;">
<circle cx="17934.7" cy="11558.7" r="196.85" /> 
</g>
<g style="fill:#FFFFFF; fill-opacity:1.0; 
stroke:#FFFFFF; stroke-width:39.3701; stroke-opacity:1; 
stroke-linecap:round; stroke-linejoin:round;">
</g>
<g style="fill:#FFFFFF; fill-opacity:1.0; 
stroke:#FFFFFF; stroke-width:0; stroke-opacity:1; 
stroke-linecap:round; stroke-linejoin:round;">
<circle cx="18934.7" cy="10558.7" r="196.85" /> 
</g>
<g style="fill:#FFFFFF; fill-opacity:1.0; 
stroke:#FFFFFF; stroke-width:39.3701; stroke-opacity:1; 
stroke-linecap:round; stroke-linejoin:round;">
</g>
<g style="fill:#FFFFFF; fill-opacity:1.0; 
stroke:#FFFFFF; stroke-width:0; stroke-opacity:1; 
stroke-linecap:round; stroke-linejoin:round;">
<circle cx="18934.7" cy="11558.7" r="196.85" /> 
</g>
<g style="fill:#FFFFFF; fill-opacity:1.0; 
stroke:#FFFFFF; stroke-width:39.3701; stroke-opacity:1; 
stroke-linecap:round; stroke-linejoin:round;">
</g>
<g style="fill:#FFFFFF; fill-opacity:1.0; 
stroke:#FFFFFF; stroke-width:0; stroke-opacity:1; 
stroke-linecap:round; stroke-linejoin:round;">
<circle cx="3147.73" cy="7604.72" r="196.85" /> 
</g>
<g style="fill:#FFFFFF; fill-opacity:1.0; 
stroke:#FFFFFF; stroke-width:39.3701; stroke-opacity:1; 
stroke-linecap:round; stroke-linejoin:round;">
</g>
<g style="fill:#FFFFFF; fill-opacity:1.0; 
stroke:#FFFFFF; stroke-width:0; stroke-opacity:1; 
stroke-linecap:round; stroke-linejoin:round;">
<circle cx="3147.73" cy="6604.72" r="196.85" /> 
</g>
<g style="fill:#FFFFFF; fill-opacity:1.0; 
stroke:#FFFFFF; stroke-width:39.3701; stroke-opacity:1; 
stroke-linecap:round; stroke-linejoin:round;">
</g>
<g style="fill:#FFFFFF; fill-opacity:1.0; 
stroke:#FFFFFF; stroke-width:0; stroke-opacity:1; 
stroke-linecap:round; stroke-linejoin:round;">
<circle cx="3147.73" cy="5604.72" r="196.85" /> 
</g>
<g style="fill:#FFFFFF; fill-opacity:1.0; 
stroke:#FFFFFF; stroke-width:39.3701; stroke-opacity:1; 
stroke-linecap:round; stroke-linejoin:round;">
</g>
<g style="fill:#000000; fill-opacity:1.0; 
stroke:#000000; stroke-width:39.3701; stroke-opacity:1; 
stroke-linecap:round; stroke-linejoin:round;">
</g>
<g style="fill:#008484; fill-opacity:1.0; 
stroke:#008484; stroke-width:39.3701; stroke-opacity:1; 
stroke-linecap:round; stroke-linejoin:round;">
</g>
<g style="fill:#008484; fill-opacity:0.0; 
stroke:#008484; stroke-width:39.3701; stroke-opacity:1; 
stroke-linecap:round; stroke-linejoin:round;">
</g>
<g style="fill:#008484; fill-opacity:0.0; 
stroke:#008484; stroke-width:59.0551; stroke-opacity:1; 
stroke-linecap:round; stroke-linejoin:round;">
<path d="M9947 9486
L9816 9299
" />
<path d="M9722 9486
L9722 9093
L9872 9093
L9909 9111
L9928 9130
L9947 9168
L9947 9224
L9928 9261
L9909 9280
L9872 9299
L9722 9299
" />
<path d="M10266 9468
L10228 9486
L10153 9486
L10116 9468
L10097 9430
L10097 9280
L10116 9243
L10153 9224
L10228 9224
L10266 9243
L10284 9280
L10284 9318
L10097 9355
" />
<path d="M10434 9468
L10472 9486
L10547 9486
L10584 9468
L10603 9430
L10603 9411
L10584 9374
L10547 9355
L10490 9355
L10453 9336
L10434 9299
L10434 9280
L10453 9243
L10490 9224
L10547 9224
L10584 9243
" />
<path d="M10922 9468
L10884 9486
L10809 9486
L10772 9468
L10753 9430
L10753 9280
L10772 9243
L10809 9224
L10884 9224
L10922 9243
L10940 9280
L10940 9318
L10753 9355
" />
<path d="M11053 9224
L11203 9224
" />
<path d="M11109 9093
L11109 9430
L11128 9468
L11165 9486
L11203 9486
" />
<path d="M5253 5024
L5122 4630
L4990 5024
" />
<path d="M4653 4630
L4878 4630
" />
<path d="M4766 4630
L4766 5024
L4803 4968
L4841 4930
L4878 4911
" />
</g>
<g style="fill:#008484; fill-opacity:0.0; 
stroke:#008484; stroke-width:49.2126; stroke-opacity:1; 
stroke-linecap:round; stroke-linejoin:round;">
<path d="M14068 6790
L13773 6790
" />
<path d="M14068 6663
L13913 6663
L13885 6677
L13871 6705
L13871 6748
L13885 6776
L13899 6790
" />
<path d="M13871 6565
L13871 6452
" />
<path d="M13773 6523
L14026 6523
L14054 6509
L14068 6480
L14068 6452
" />
<path d="M13871 6396
L13871 6284
" />
<path d="M13773 6354
L14026 6354
L14054 6340
L14068 6312
L14068 6284
" />
<path d="M13871 6185
L14166 6185
" />
<path d="M13885 6185
L13871 6157
L13871 6101
L13885 6073
L13899 6059
L13927 6045
L14012 6045
L14040 6059
L14054 6073
L14068 6101
L14068 6157
L14054 6185
" />
<path d="M14054 5932
L14068 5904
L14068 5848
L14054 5820
L14026 5806
L14012 5806
L13983 5820
L13969 5848
L13969 5890
L13955 5918
L13927 5932
L13913 5932
L13885 5918
L13871 5890
L13871 5848
L13885 5820
" />
<path d="M14040 5679
L14054 5665
L14068 5679
L14054 5693
L14040 5679
L14068 5679
" />
<path d="M13885 5679
L13899 5665
L13913 5679
L13899 5693
L13885 5679
L13913 5679
" />
<path d="M13758 5328
L14138 5581
" />
<path d="M13758 5018
L14138 5271
" />
<path d="M13871 4948
L14068 4878
L13871 4807
" />
<path d="M14068 4695
L13773 4695
" />
<path d="M13955 4667
L14068 4582
" />
<path d="M13871 4582
L13983 4695
" />
<path d="M13773 4484
L13773 4301
L13885 4400
L13885 4357
L13899 4329
L13913 4315
L13941 4301
L14012 4301
L14040 4315
L14054 4329
L14068 4357
L14068 4442
L14054 4470
L14040 4484
" />
<path d="M13871 4048
L14110 4048
L14138 4062
L14152 4076
L14166 4104
L14166 4146
L14152 4175
" />
<path d="M14054 4048
L14068 4076
L14068 4132
L14054 4160
L14040 4175
L14012 4189
L13927 4189
L13899 4175
L13885 4160
L13871 4132
L13871 4076
L13885 4048
" />
<path d="M14068 3865
L14054 3893
L14040 3907
L14012 3921
L13927 3921
L13899 3907
L13885 3893
L13871 3865
L13871 3823
L13885 3795
L13899 3781
L13927 3767
L14012 3767
L14040 3781
L14054 3795
L14068 3823
L14068 3865
" />
<path d="M14040 3640
L14054 3626
L14068 3640
L14054 3654
L14040 3640
L14068 3640
" />
<path d="M14054 3373
L14068 3401
L14068 3457
L14054 3486
L14040 3500
L14012 3514
L13927 3514
L13899 3500
L13885 3486
L13871 3457
L13871 3401
L13885 3373
" />
<path d="M14068 3204
L14054 3232
L14040 3247
L14012 3261
L13927 3261
L13899 3247
L13885 3232
L13871 3204
L13871 3162
L13885 3134
L13899 3120
L13927 3106
L14012 3106
L14040 3120
L14054 3134
L14068 3162
L14068 3204
" />
<path d="M14068 2979
L13871 2979
" />
<path d="M13899 2979
L13885 2965
L13871 2937
L13871 2895
L13885 2867
L13913 2853
L14068 2853
" />
<path d="M13913 2853
L13885 2839
L13871 2811
L13871 2768
L13885 2740
L13913 2726
L14068 2726
" />
<path d="M13758 2375
L14138 2628
" />
<path d="M13871 2276
L14166 2276
" />
<path d="M13885 2276
L13871 2248
L13871 2192
L13885 2164
L13899 2150
L13927 2136
L14012 2136
L14040 2150
L14054 2164
L14068 2192
L14068 2248
L14054 2276
" />
<path d="M13758 1798
L14138 2051
" />
<path d="M14068 1700
L13871 1700
" />
<path d="M13899 1700
L13885 1686
L13871 1658
L13871 1615
L13885 1587
L13913 1573
L14068 1573
" />
<path d="M13913 1573
L13885 1559
L13871 1531
L13871 1489
L13885 1461
L13913 1447
L14068 1447
" />
<path d="M14054 1320
L14068 1292
L14068 1236
L14054 1208
L14026 1194
L14012 1194
L13983 1208
L13969 1236
L13969 1278
L13955 1306
L13927 1320
L13913 1320
L13885 1306
L13871 1278
L13871 1236
L13885 1208
" />
<path d="M14068 912
L14068 1081
" />
<path d="M14068 997
L13773 997
L13815 1025
L13843 1053
L13857 1081
" />
</g>
<g style="fill:#008484; fill-opacity:0.0; 
stroke:#008484; stroke-width:59.0551; stroke-opacity:1; 
stroke-linecap:round; stroke-linejoin:round;">
<path d="M3406 2236
L3406 1843
L3556 1843
L3594 1861
L3612 1880
L3631 1918
L3631 1974
L3612 2011
L3594 2030
L3556 2049
L3406 2049
" />
<path d="M3856 2236
L3819 2218
L3800 2199
L3781 2161
L3781 2049
L3800 2011
L3819 1993
L3856 1974
L3912 1974
L3950 1993
L3969 2011
L3987 2049
L3987 2161
L3969 2199
L3950 2218
L3912 2236
L3856 2236
" />
<path d="M4119 1974
L4194 2236
L4269 2049
L4344 2236
L4419 1974
" />
<path d="M4719 2218
L4681 2236
L4606 2236
L4569 2218
L4550 2180
L4550 2030
L4569 1993
L4606 1974
L4681 1974
L4719 1993
L4737 2030
L4737 2068
L4550 2105
" />
<path d="M4906 2236
L4906 1974
" />
<path d="M4906 2049
L4925 2011
L4944 1993
L4981 1974
L5019 1974
" />
</g>
<g style="fill:#008484; fill-opacity:0.0; 
stroke:#008484; stroke-width:118.11; stroke-opacity:1; 
stroke-linecap:round; stroke-linejoin:round;">
<path d="M3609 11502
L4199 11305
L3609 11108
" />
<path d="M4199 10911
L3609 10911
" />
<path d="M4199 10574
L3862 10827
" />
<path d="M3609 10574
L3946 10911
" />
<path d="M3609 10377
L3609 10011
L3834 10208
L3834 10124
L3862 10068
L3890 10040
L3946 10011
L4087 10011
L4143 10040
L4171 10068
L4199 10124
L4199 10293
L4171 10349
L4143 10377
" />
<path d="M3637 9449
L3609 9505
L3609 9590
L3637 9674
L3693 9730
L3749 9758
L3862 9787
L3946 9787
L4059 9758
L4115 9730
L4171 9674
L4199 9590
L4199 9533
L4171 9449
L4143 9421
L3946 9421
L3946 9533
" />
<path d="M3609 9055
L3609 8943
L3637 8887
L3693 8830
L3806 8802
L4003 8802
L4115 8830
L4171 8887
L4199 8943
L4199 9055
L4171 9112
L4115 9168
L4003 9196
L3806 9196
L3693 9168
L3637 9112
L3609 9055
" />
<path d="M5203 11418
L4613 11418
L5035 11221
L4613 11024
L5203 11024
" />
<path d="M5203 10658
L5175 10715
L5147 10743
L5091 10771
L4922 10771
L4866 10743
L4838 10715
L4810 10658
L4810 10574
L4838 10518
L4866 10490
L4922 10461
L5091 10461
L5147 10490
L5175 10518
L5203 10574
L5203 10658
" />
<path d="M4810 10293
L4810 10068
" />
<path d="M4613 10208
L5119 10208
L5175 10180
L5203 10124
L5203 10068
" />
<path d="M5203 9871
L4810 9871
" />
<path d="M4613 9871
L4641 9899
L4669 9871
L4641 9843
L4613 9871
L4669 9871
" />
<path d="M5203 9505
L5175 9562
L5147 9590
L5091 9618
L4922 9618
L4866 9590
L4838 9562
L4810 9505
L4810 9421
L4838 9365
L4866 9337
L4922 9308
L5091 9308
L5147 9337
L5175 9365
L5203 9421
L5203 9505
" />
<path d="M4810 9055
L5203 9055
" />
<path d="M4866 9055
L4838 9027
L4810 8971
L4810 8887
L4838 8830
L4894 8802
L5203 8802
" />
<path d="M5175 8099
L5203 8015
L5203 7874
L5175 7818
L5147 7790
L5091 7762
L5035 7762
L4978 7790
L4950 7818
L4922 7874
L4894 7987
L4866 8043
L4838 8071
L4782 8099
L4725 8099
L4669 8071
L4641 8043
L4613 7987
L4613 7846
L4641 7762
" />
<path d="M5175 7284
L5203 7340
L5203 7452
L5175 7509
L5119 7537
L4894 7537
L4838 7509
L4810 7452
L4810 7340
L4838 7284
L4894 7256
L4950 7256
L5007 7537
" />
<path d="M4810 7002
L5203 7002
" />
<path d="M4866 7002
L4838 6974
L4810 6918
L4810 6834
L4838 6778
L4894 6749
L5203 6749
" />
<path d="M5175 6496
L5203 6440
L5203 6328
L5175 6271
L5119 6243
L5091 6243
L5035 6271
L5007 6328
L5007 6412
L4978 6468
L4922 6496
L4894 6496
L4838 6468
L4810 6412
L4810 6328
L4838 6271
" />
<path d="M5203 5906
L5175 5962
L5147 5990
L5091 6018
L4922 6018
L4866 5990
L4838 5962
L4810 5906
L4810 5821
L4838 5765
L4866 5737
L4922 5709
L5091 5709
L5147 5737
L5175 5765
L5203 5821
L5203 5906
" />
<path d="M5203 5456
L4810 5456
" />
<path d="M4922 5456
L4866 5428
L4838 5400
L4810 5343
L4810 5287
" />
<path d="M15803 7266
L16000 7266
" />
<path d="M16084 7575
L15803 7575
L15803 6985
L16084 6985
" />
<path d="M16309 7547
L16394 7575
L16534 7575
L16591 7547
L16619 7519
L16647 7463
L16647 7407
L16619 7350
L16591 7322
L16534 7294
L16422 7266
L16366 7238
L16338 7210
L16309 7153
L16309 7097
L16338 7041
L16366 7013
L16422 6985
L16562 6985
L16647 7013
" />
<path d="M16900 7575
L16900 6985
L17125 6985
L17181 7013
L17209 7041
L17237 7097
L17237 7182
L17209 7238
L17181 7266
L17125 7294
L16900 7294
" />
<path d="M17490 7350
L17940 7350
" />
<path d="M18334 6985
L18390 6985
L18447 7013
L18475 7041
L18503 7097
L18531 7210
L18531 7350
L18503 7463
L18475 7519
L18447 7547
L18390 7575
L18334 7575
L18278 7547
L18250 7519
L18222 7463
L18194 7350
L18194 7210
L18222 7097
L18250 7041
L18278 7013
L18334 6985
" />
<path d="M19093 7575
L18756 7575
" />
<path d="M18925 7575
L18925 6985
L18868 7069
L18812 7125
L18756 7153
" />
</g>
<g style="fill:#008484; fill-opacity:0.0; 
stroke:#008484; stroke-width:196.85; stroke-opacity:1; 
stroke-linecap:round; stroke-linejoin:round;">
<path d="M17934 1808
L19434 1808
" />
<path d="M17934 2808
L17934 1808
" />
<path d="M17434 2808
L17934 2808
" />
<path d="M17434 1808
L17434 2808
" />
<path d="M16934 1808
L17434 1808
" />
<path d="M14934 3808
L17934 3808
" />
<path d="M16934 2808
L16934 1808
" />
<path d="M16434 2808
L16934 2808
" />
<path d="M16434 1808
L16434 2808
" />
<path d="M15934 1808
L16434 1808
" />
<path d="M15934 2808
L15934 1808
" />
<path d="M15434 2808
L15934 2808
" />
<path d="M15434 1808
L15434 2808
" />
<path d="M14934 1808
L15434 1808
" />
<path d="M14934 4808
L14934 1808
" />
</g>
<g style="fill:#008484; fill-opacity:0.0; 
stroke:#008484; stroke-width:78.7402; stroke-opacity:1; 
stroke-linecap:round; stroke-linejoin:round;">
<path d="M14359 928
L20509 928
" />
<path d="M14359 12739
L14359 928
" />
<path d="M20509 12739
L14359 12739
" />
<path d="M20509 12739
L20509 928
" />
</g>
<g style="fill:#008484; fill-opacity:0.0; 
stroke:#008484; stroke-width:47.2441; stroke-opacity:1; 
stroke-linecap:round; stroke-linejoin:round;">
<path d="M10415 8674
L10454 8674
" />
<path d="M9824 6942
L9824 8674
" />
<path d="M11044 8674
L11044 6942
" />
<path d="M10415 6942
L10454 6942
" />
<path d="M13481 10072
L13481 10544
" />
<path d="M12788 10544
L12788 10072
" />
<path d="M8418 5407
L7631 5407
" />
<path d="M7631 6210
L8418 6210
" />
<path d="M10850 6210
L11637 6210
" />
<path d="M11637 5407
L10850 5407
" />
</g>
<g style="fill:#008484; fill-opacity:0.0; 
stroke:#008484; stroke-width:59.0551; stroke-opacity:1; 
stroke-linecap:round; stroke-linejoin:round;">
<path d="M6574 3558
L6574 3745
" />
<path d="M6574 3745
L3306 3745
" />
<path d="M3306 3745
L3306 3558
" />
<path d="M6574 2672
L6574 2485
" />
<path d="M6574 2485
L3306 2485
" />
<path d="M3306 2485
L3306 2672
" />
<path d="M5846 3863
L5058 3863
" />
</g>
<g style="fill:#008484; fill-opacity:0.0; 
stroke:#008484; stroke-width:47.2441; stroke-opacity:1; 
stroke-linecap:round; stroke-linejoin:round;">
<path d="M9966 2550
L9376 2550
" />
<path d="M9376 2550
L9376 2656
" />
<path d="M9376 2656
L8261 2656
" />
<path d="M9966 5266
L9376 5266
" />
<path d="M9376 5266
L9376 5160
" />
<path d="M9376 5160
L8943 5160
" />
<path d="M16434 10035
L19458 10035
" />
<path d="M19458 10035
L19458 12082
" />
<path d="M19458 12082
L15411 12082
" />
<path d="M15411 12082
L15411 11058
" />
<path d="M15411 11058
L16434 11058
" />
<path d="M16434 11058
L16434 10035
" />
<path d="M15934 10035
L15411 10035
" />
<path d="M15411 10035
L15411 10535
" />
<path d="M14281 10072
L14281 10544
" />
<path d="M13588 10544
L13588 10072
" />
<path d="M20281 10696
L20281 11168
" />
<path d="M19588 11168
L19588 10696
" />
</g>
<g style="fill:#C2C200; fill-opacity:0.0; 
stroke:#C2C200; stroke-width:47.2441; stroke-opacity:1; 
stroke-linecap:round; stroke-linejoin:round;">
</g>
<g style="fill:#C2C200; fill-opacity:0.0; 
stroke:#C2C200; stroke-width:59.0551; stroke-opacity:1; 
stroke-linecap:round; stroke-linejoin:round;">
<path d="M13312 11400
L13125 11531
" />
<path d="M13312 11625
L12919 11625
L12919 11475
L12937 11437
L12956 11419
L12994 11400
L13050 11400
L13087 11419
L13106 11437
L13125 11475
L13125 11625
" />
<path d="M12956 11250
L12937 11231
L12919 11194
L12919 11100
L12937 11062
L12956 11044
L12994 11025
L13031 11025
L13087 11044
L13312 11269
L13312 11025
" />
<path d="M7025 5874
L7044 5893
L7062 5949
L7062 5986
L7044 6043
L7006 6080
L6969 6099
L6894 6117
L6837 6117
L6762 6099
L6725 6080
L6687 6043
L6669 5986
L6669 5949
L6687 5893
L6706 5874
" />
<path d="M7062 5499
L7062 5724
" />
<path d="M7062 5611
L6669 5611
L6725 5649
L6762 5686
L6781 5724
" />
<path d="M12575 5874
L12594 5893
L12612 5949
L12612 5986
L12594 6043
L12556 6080
L12519 6099
L12444 6117
L12387 6117
L12312 6099
L12275 6080
L12237 6043
L12219 5986
L12219 5949
L12237 5893
L12256 5874
" />
<path d="M12256 5724
L12237 5705
L12219 5668
L12219 5574
L12237 5536
L12256 5518
L12294 5499
L12331 5499
L12387 5518
L12612 5743
L12612 5499
" />
<path d="M10048 1921
L10048 2239
L10067 2277
L10086 2295
L10123 2314
L10198 2314
L10236 2295
L10254 2277
L10273 2239
L10273 1921
" />
<path d="M10667 2314
L10442 2314
" />
<path d="M10554 2314
L10554 1921
L10517 1977
L10479 2014
L10442 2033
" />
<path d="M14112 11398
L13925 11529
" />
<path d="M14112 11623
L13719 11623
L13719 11473
L13737 11435
L13756 11417
L13794 11398
L13850 11398
L13887 11417
L13906 11435
L13925 11473
L13925 11623
" />
<path d="M14112 11023
L14112 11248
" />
<path d="M14112 11135
L13719 11135
L13775 11173
L13812 11210
L13831 11248
" />
<path d="M20112 11998
L19925 12129
" />
<path d="M20112 12223
L19719 12223
L19719 12073
L19737 12035
L19756 12017
L19794 11998
L19850 11998
L19887 12017
L19906 12035
L19925 12073
L19925 12223
" />
<path d="M19719 11867
L19719 11623
L19869 11754
L19869 11698
L19887 11660
L19906 11642
L19944 11623
L20037 11623
L20075 11642
L20094 11660
L20112 11698
L20112 11810
L20094 11848
L20075 11867
" />
</g>
<g style="fill:#000000; fill-opacity:0.0; 
stroke:#000000; stroke-width:59.0551; stroke-opacity:1; 
stroke-linecap:round; stroke-linejoin:round;">
</g>
<g style="fill:#C2C200; fill-opacity:0.0; 
stroke:#C2C200; stroke-width:59.0551; stroke-opacity:1; 
stroke-linecap:round; stroke-linejoin:round;">
<path d="M18934 12808
L21434 12808
" />
<path d="M18934 12308
L18934 12808
" />
<path d="M18684 12308
L18934 12308
" />
<path d="M4684 12808
L2184 12808
" />
<path d="M4684 12058
L4684 12808
" />
<path d="M4934 12058
L4684 12058
" />
<path d="M18934 308
L21434 308
" />
<path d="M18934 808
L18934 308
" />
<path d="M18684 808
L18934 808
" />
<path d="M4684 308
L2184 308
" />
<path d="M4684 1058
L4684 308
" />
<path d="M4934 1058
L4684 1058
" />
<path d="M21434 308
L21434 12808
" />
<path d="M4934 308
L18684 308
" />
<path d="M2184 12808
L2184 308
" />
<path d="M18684 12808
L4934 12808
" />
<path d="M18684 308
L18684 808
" />
<path d="M18684 12808
L18684 12308
" />
<path d="M4934 12808
L4934 12058
" />
<path d="M4934 308
L4934 1058
" />
</g> 
</svg>
