M48
;DRILL file {KiCad 4.0.7} date 01/11/18 16:59:38
;FORMAT={-:-/ absolute / inch / decimal}
FMAT,2
INCH,TZ
T1C0.014
T2C0.017
T3C0.024
T4C0.039
T5C0.079
%
G90
G05
M72
T2
X4.6494Y-3.5394
X4.675Y-3.5
X4.7006Y-3.5394
X4.7262Y-3.5
X4.7518Y-3.5394
T3
X4.9905Y-3.5201
X5.125Y-3.8
X5.2188Y-3.8017
T4
X4.5213Y-3.7796
X4.5213Y-3.8796
X4.5213Y-3.9796
X5.8Y-4.275
X5.8Y-4.375
X5.9Y-4.275
X5.9Y-4.375
X6.Y-4.275
X6.Y-4.375
X6.1Y-4.275
X6.1Y-4.375
T5
X4.914Y-3.3254
X4.914Y-4.4278
T1
X4.5598Y-3.5504G85X4.5598Y-3.511
G05
X4.8413Y-3.5504G85X4.8413Y-3.511
G05
T0
M30
