M48
;DRILL file {KiCad 4.0.7} date 01/23/18 00:00:06
;FORMAT={-:-/ absolute / inch / decimal}
FMAT,2
INCH,TZ
T1C0.014
T2C0.017
T3C0.039
T4C0.079
%
G90
G05
M72
T2
X4.675Y-4.
X4.695Y-3.57
X4.7206Y-3.6094
X4.7462Y-3.57
X4.7718Y-3.6094
X4.7974Y-3.57
X4.925Y-3.825
T3
X5.3074Y-3.7715
X5.3074Y-3.8715
X5.3074Y-3.9715
X5.81Y-3.475
X5.81Y-3.575
X5.91Y-3.475
X5.91Y-3.575
X6.01Y-3.475
X6.01Y-3.575
X6.11Y-3.475
X6.11Y-3.575
T4
X4.9147Y-3.3233
X4.9147Y-4.4256
T1
X4.6054Y-3.559G85X4.6054Y-3.5983
G05
X4.8869Y-3.559G85X4.8869Y-3.5983
G05
T0
M30
