G04 #@! TF.FileFunction,Copper,L1,Top,Signal*
%FSLAX46Y46*%
G04 Gerber Fmt 4.6, Leading zero omitted, Abs format (unit mm)*
G04 Created by KiCad (PCBNEW 4.0.7) date 01/23/18 00:00:34*
%MOMM*%
%LPD*%
G01*
G04 APERTURE LIST*
%ADD10C,0.100000*%
%ADD11R,0.900000X1.000000*%
%ADD12R,1.700000X1.700000*%
%ADD13O,1.700000X1.700000*%
%ADD14R,1.300000X0.700000*%
%ADD15R,1.600000X1.000000*%
%ADD16R,0.840000X0.840000*%
%ADD17C,0.840000*%
%ADD18O,0.850000X1.850000*%
%ADD19R,1.200000X2.200000*%
%ADD20R,5.800000X6.400000*%
%ADD21R,2.750000X3.050000*%
%ADD22C,2.500000*%
%ADD23C,0.800000*%
%ADD24C,0.300000*%
%ADD25C,0.200000*%
%ADD26C,0.500000*%
%ADD27C,0.250000*%
G04 APERTURE END LIST*
D10*
D11*
X129540000Y-90170000D03*
X129540000Y-91770000D03*
X133640000Y-90170000D03*
X133640000Y-91770000D03*
D12*
X147574000Y-90805000D03*
D13*
X147574000Y-88265000D03*
X150114000Y-90805000D03*
X150114000Y-88265000D03*
X152654000Y-90805000D03*
X152654000Y-88265000D03*
X155194000Y-90805000D03*
X155194000Y-88265000D03*
D14*
X140335000Y-87000000D03*
X140335000Y-88900000D03*
D15*
X118745000Y-96925000D03*
X118745000Y-99925000D03*
X129540000Y-99925000D03*
X129540000Y-96925000D03*
D16*
X119253000Y-90678000D03*
D17*
X119903000Y-91678000D03*
X120553000Y-90678000D03*
X121203000Y-91678000D03*
X121853000Y-90678000D03*
D18*
X116978000Y-90898000D03*
X124128000Y-90898000D03*
D19*
X126480000Y-97155000D03*
X121920000Y-97155000D03*
D20*
X124200000Y-103455000D03*
D21*
X122675000Y-105130000D03*
X125725000Y-101780000D03*
X125725000Y-105130000D03*
X122675000Y-101780000D03*
D14*
X138430000Y-86995000D03*
X138430000Y-88895000D03*
X142240000Y-87000000D03*
X142240000Y-88900000D03*
D12*
X134807414Y-95795156D03*
D13*
X134807414Y-98335156D03*
X134807414Y-100875156D03*
D22*
X124832414Y-84411156D03*
X124832414Y-112411156D03*
D23*
X125095000Y-97155000D03*
X118745000Y-101600000D03*
D24*
X119253000Y-90678000D02*
X118745000Y-91186000D01*
X118745000Y-91186000D02*
X118745000Y-96925000D01*
X118745000Y-96925000D02*
X117815107Y-96925000D01*
X133957415Y-101725155D02*
X134807414Y-100875156D01*
X128377569Y-107305001D02*
X133957415Y-101725155D01*
X120779999Y-107305001D02*
X128377569Y-107305001D01*
X117294999Y-103820001D02*
X120779999Y-107305001D01*
X117294999Y-97445108D02*
X117294999Y-103820001D01*
X117815107Y-96925000D02*
X117294999Y-97445108D01*
X118745000Y-96925000D02*
X121690000Y-96925000D01*
D25*
X124128000Y-90898000D02*
X124853000Y-90898000D01*
X128790000Y-91770000D02*
X129540000Y-91770000D01*
X125725000Y-91770000D02*
X128790000Y-91770000D01*
X124853000Y-90898000D02*
X125725000Y-91770000D01*
X133640000Y-91770000D02*
X132890000Y-91770000D01*
X132890000Y-91770000D02*
X129540000Y-91770000D01*
D24*
X126480000Y-97155000D02*
X125095000Y-97155000D01*
D26*
X118745000Y-99925000D02*
X118745000Y-101600000D01*
D24*
X129540000Y-96925000D02*
X126710000Y-96925000D01*
D25*
X142240000Y-88900000D02*
X140335000Y-88900000D01*
X138430000Y-88895000D02*
X140330000Y-88895000D01*
D24*
X132724871Y-93161298D02*
X140335000Y-93161298D01*
X131757582Y-99002229D02*
X131757582Y-94128587D01*
X130834811Y-99925000D02*
X131757582Y-99002229D01*
X131757582Y-94128587D02*
X132724871Y-93161298D01*
X129540000Y-99925000D02*
X130834811Y-99925000D01*
X140335000Y-93161298D02*
X155642151Y-93161298D01*
X156043999Y-89114999D02*
X155194000Y-88265000D01*
X156694001Y-89765001D02*
X156043999Y-89114999D01*
X155642151Y-93161298D02*
X156694001Y-92109448D01*
X156694001Y-92109448D02*
X156694001Y-89765001D01*
D25*
X140335000Y-88900000D02*
X140335000Y-93161298D01*
D24*
X129540000Y-99925000D02*
X127580000Y-99925000D01*
X127580000Y-99925000D02*
X125725000Y-101780000D01*
D27*
X142540000Y-87000000D02*
X142240000Y-87000000D01*
D25*
X152654000Y-90805000D02*
X151278999Y-92180001D01*
X151278999Y-92180001D02*
X144095095Y-92180001D01*
X144095095Y-92180001D02*
X143415001Y-91499907D01*
X143415001Y-87875001D02*
X142540000Y-87000000D01*
X143415001Y-91499907D02*
X143415001Y-87875001D01*
X150114000Y-88265000D02*
X150114000Y-87062919D01*
X141310001Y-86324999D02*
X140635000Y-87000000D01*
X149376080Y-86324999D02*
X141310001Y-86324999D01*
X150114000Y-87062919D02*
X149376080Y-86324999D01*
X133640000Y-90170000D02*
X129540000Y-90170000D01*
X138430000Y-86995000D02*
X136765000Y-86995000D01*
X136765000Y-86995000D02*
X133640000Y-90120000D01*
X133640000Y-90120000D02*
X133640000Y-90170000D01*
X152654000Y-88265000D02*
X150114000Y-85725000D01*
X140000000Y-85725000D02*
X138730000Y-86995000D01*
X150114000Y-85725000D02*
X140000000Y-85725000D01*
M02*
