G04 #@! TF.FileFunction,Copper,L2,Bot,Signal*
%FSLAX46Y46*%
G04 Gerber Fmt 4.6, Leading zero omitted, Abs format (unit mm)*
G04 Created by KiCad (PCBNEW 4.0.7) date 01/11/18 16:58:58*
%MOMM*%
%LPD*%
G01*
G04 APERTURE LIST*
%ADD10C,0.100000*%
%ADD11R,0.840000X0.840000*%
%ADD12C,0.840000*%
%ADD13O,0.850000X1.850000*%
%ADD14R,1.700000X1.700000*%
%ADD15O,1.700000X1.700000*%
%ADD16C,2.500000*%
%ADD17C,0.800000*%
%ADD18C,0.254000*%
G04 APERTURE END LIST*
D10*
D11*
X120695000Y-89900000D03*
D12*
X120045000Y-88900000D03*
X119395000Y-89900000D03*
X118745000Y-88900000D03*
X118095000Y-89900000D03*
D13*
X122970000Y-89680000D03*
X115820000Y-89680000D03*
D14*
X147320000Y-108585000D03*
D15*
X147320000Y-111125000D03*
X149860000Y-108585000D03*
X149860000Y-111125000D03*
X152400000Y-108585000D03*
X152400000Y-111125000D03*
X154940000Y-108585000D03*
X154940000Y-111125000D03*
D14*
X114841000Y-101082000D03*
D15*
X114841000Y-98542000D03*
X114841000Y-96002000D03*
D16*
X124816000Y-112466000D03*
X124816000Y-84466000D03*
D17*
X132556273Y-96561991D03*
X130175000Y-96520000D03*
X126758553Y-89411197D03*
D18*
G36*
X118035000Y-84455000D02*
X118089046Y-84726705D01*
X118242954Y-84957046D01*
X118473295Y-85110954D01*
X118745000Y-85165000D01*
X119380000Y-85165000D01*
X119651705Y-85110954D01*
X119882046Y-84957046D01*
X120035954Y-84726705D01*
X120090000Y-84455000D01*
X120090000Y-83260000D01*
X123355985Y-83260000D01*
X123218907Y-83396839D01*
X122931328Y-84089405D01*
X122930674Y-84839305D01*
X123217043Y-85532372D01*
X123746839Y-86063093D01*
X124439405Y-86350672D01*
X125189305Y-86351326D01*
X125882372Y-86064957D01*
X126413093Y-85535161D01*
X126700672Y-84842595D01*
X126701326Y-84092695D01*
X126414957Y-83399628D01*
X126275572Y-83260000D01*
X140208000Y-83260000D01*
X140208000Y-105410000D01*
X140218006Y-105459410D01*
X140246447Y-105501035D01*
X140288841Y-105528315D01*
X140335000Y-105537000D01*
X160580000Y-105537000D01*
X160580000Y-113590000D01*
X155650000Y-113590000D01*
X155650000Y-113030000D01*
X155595954Y-112758295D01*
X155448696Y-112537907D01*
X155508285Y-112526054D01*
X155990054Y-112204147D01*
X156311961Y-111722378D01*
X156425000Y-111154093D01*
X156425000Y-111095907D01*
X156311961Y-110527622D01*
X155990054Y-110045853D01*
X155704422Y-109855000D01*
X155990054Y-109664147D01*
X156311961Y-109182378D01*
X156425000Y-108614093D01*
X156425000Y-108555907D01*
X156311961Y-107987622D01*
X155990054Y-107505853D01*
X155508285Y-107183946D01*
X154940000Y-107070907D01*
X154371715Y-107183946D01*
X153889946Y-107505853D01*
X153670000Y-107835026D01*
X153450054Y-107505853D01*
X152968285Y-107183946D01*
X152400000Y-107070907D01*
X151831715Y-107183946D01*
X151349946Y-107505853D01*
X151130000Y-107835026D01*
X150910054Y-107505853D01*
X150428285Y-107183946D01*
X149860000Y-107070907D01*
X149291715Y-107183946D01*
X148809946Y-107505853D01*
X148782150Y-107547452D01*
X148773162Y-107499683D01*
X148634090Y-107283559D01*
X148421890Y-107138569D01*
X148170000Y-107087560D01*
X146470000Y-107087560D01*
X146234683Y-107131838D01*
X146018559Y-107270910D01*
X145873569Y-107483110D01*
X145822560Y-107735000D01*
X145822560Y-109435000D01*
X145866838Y-109670317D01*
X146005910Y-109886441D01*
X146218110Y-110031431D01*
X146332301Y-110054555D01*
X146124817Y-110243642D01*
X145878514Y-110768108D01*
X145999181Y-110998000D01*
X147193000Y-110998000D01*
X147193000Y-110978000D01*
X147447000Y-110978000D01*
X147447000Y-110998000D01*
X147467000Y-110998000D01*
X147467000Y-111252000D01*
X147447000Y-111252000D01*
X147447000Y-112445155D01*
X147676890Y-112566476D01*
X148086924Y-112396645D01*
X148515183Y-112006358D01*
X148582298Y-111863447D01*
X148809946Y-112204147D01*
X149291715Y-112526054D01*
X149860000Y-112639093D01*
X150428285Y-112526054D01*
X150910054Y-112204147D01*
X151130000Y-111874974D01*
X151349946Y-112204147D01*
X151831715Y-112526054D01*
X152400000Y-112639093D01*
X152968285Y-112526054D01*
X153450054Y-112204147D01*
X153670000Y-111874974D01*
X153889946Y-112204147D01*
X154118772Y-112357043D01*
X154033295Y-112374046D01*
X153802954Y-112527954D01*
X153649046Y-112758295D01*
X153595000Y-113030000D01*
X153595000Y-113590000D01*
X126358158Y-113590000D01*
X126413093Y-113535161D01*
X126700672Y-112842595D01*
X126701326Y-112092695D01*
X126448948Y-111481892D01*
X145878514Y-111481892D01*
X146124817Y-112006358D01*
X146553076Y-112396645D01*
X146963110Y-112566476D01*
X147193000Y-112445155D01*
X147193000Y-111252000D01*
X145999181Y-111252000D01*
X145878514Y-111481892D01*
X126448948Y-111481892D01*
X126414957Y-111399628D01*
X125885161Y-110868907D01*
X125192595Y-110581328D01*
X124442695Y-110580674D01*
X123749628Y-110867043D01*
X123218907Y-111396839D01*
X122931328Y-112089405D01*
X122930674Y-112839305D01*
X123217043Y-113532372D01*
X123274571Y-113590000D01*
X120090000Y-113590000D01*
X120090000Y-112395000D01*
X120035954Y-112123295D01*
X119882046Y-111892954D01*
X119651705Y-111739046D01*
X119380000Y-111685000D01*
X118745000Y-111685000D01*
X118473295Y-111739046D01*
X118242954Y-111892954D01*
X118089046Y-112123295D01*
X118035000Y-112395000D01*
X118035000Y-113590000D01*
X113105000Y-113590000D01*
X113105000Y-96002000D01*
X113326907Y-96002000D01*
X113439946Y-96570285D01*
X113761853Y-97052054D01*
X114091026Y-97272000D01*
X113761853Y-97491946D01*
X113439946Y-97973715D01*
X113326907Y-98542000D01*
X113439946Y-99110285D01*
X113761853Y-99592054D01*
X113803452Y-99619850D01*
X113755683Y-99628838D01*
X113539559Y-99767910D01*
X113394569Y-99980110D01*
X113343560Y-100232000D01*
X113343560Y-101932000D01*
X113387838Y-102167317D01*
X113526910Y-102383441D01*
X113739110Y-102528431D01*
X113991000Y-102579440D01*
X115691000Y-102579440D01*
X115926317Y-102535162D01*
X116142441Y-102396090D01*
X116287431Y-102183890D01*
X116338440Y-101932000D01*
X116338440Y-100232000D01*
X116294162Y-99996683D01*
X116155090Y-99780559D01*
X115942890Y-99635569D01*
X115875459Y-99621914D01*
X115920147Y-99592054D01*
X116242054Y-99110285D01*
X116355093Y-98542000D01*
X116242054Y-97973715D01*
X115920147Y-97491946D01*
X115590974Y-97272000D01*
X115920147Y-97052054D01*
X116242054Y-96570285D01*
X116355093Y-96002000D01*
X116242054Y-95433715D01*
X115920147Y-94951946D01*
X115438378Y-94630039D01*
X114870093Y-94517000D01*
X114811907Y-94517000D01*
X114243622Y-94630039D01*
X113761853Y-94951946D01*
X113439946Y-95433715D01*
X113326907Y-96002000D01*
X113105000Y-96002000D01*
X113105000Y-89807000D01*
X114760000Y-89807000D01*
X114760000Y-90307000D01*
X114889288Y-90702977D01*
X115160269Y-91019336D01*
X115529938Y-91199540D01*
X115693000Y-91072257D01*
X115693000Y-89807000D01*
X115947000Y-89807000D01*
X115947000Y-91072257D01*
X116110062Y-91199540D01*
X116479731Y-91019336D01*
X116750712Y-90702977D01*
X116880000Y-90307000D01*
X116880000Y-89807000D01*
X115947000Y-89807000D01*
X115693000Y-89807000D01*
X114760000Y-89807000D01*
X113105000Y-89807000D01*
X113105000Y-89774137D01*
X117026721Y-89774137D01*
X117059873Y-90192531D01*
X117156204Y-90425095D01*
X117363087Y-90452308D01*
X117915395Y-89900000D01*
X117363087Y-89347692D01*
X117156204Y-89374905D01*
X117026721Y-89774137D01*
X113105000Y-89774137D01*
X113105000Y-89053000D01*
X114760000Y-89053000D01*
X114760000Y-89553000D01*
X115693000Y-89553000D01*
X115693000Y-88287743D01*
X115947000Y-88287743D01*
X115947000Y-89553000D01*
X116880000Y-89553000D01*
X116880000Y-89168087D01*
X117542692Y-89168087D01*
X117835066Y-89460461D01*
X117850093Y-89496829D01*
X118146610Y-89793864D01*
X118232361Y-89829471D01*
X118288748Y-89885858D01*
X118274605Y-89900000D01*
X118288748Y-89914143D01*
X118109143Y-90093748D01*
X118095000Y-90079605D01*
X117542692Y-90631913D01*
X117569905Y-90838796D01*
X117969137Y-90968279D01*
X118387531Y-90935127D01*
X118620095Y-90838796D01*
X118645868Y-90642859D01*
X118796610Y-90793864D01*
X119184227Y-90954817D01*
X119603932Y-90955183D01*
X119900489Y-90832648D01*
X120023110Y-90916431D01*
X120275000Y-90967440D01*
X121115000Y-90967440D01*
X121350317Y-90923162D01*
X121566441Y-90784090D01*
X121711431Y-90571890D01*
X121762440Y-90320000D01*
X121762440Y-89807000D01*
X121910000Y-89807000D01*
X121910000Y-90307000D01*
X122039288Y-90702977D01*
X122310269Y-91019336D01*
X122679938Y-91199540D01*
X122843000Y-91072257D01*
X122843000Y-89807000D01*
X123097000Y-89807000D01*
X123097000Y-91072257D01*
X123260062Y-91199540D01*
X123629731Y-91019336D01*
X123900712Y-90702977D01*
X124030000Y-90307000D01*
X124030000Y-89807000D01*
X123097000Y-89807000D01*
X122843000Y-89807000D01*
X121910000Y-89807000D01*
X121762440Y-89807000D01*
X121762440Y-89480000D01*
X121718162Y-89244683D01*
X121594818Y-89053000D01*
X121910000Y-89053000D01*
X121910000Y-89553000D01*
X122843000Y-89553000D01*
X122843000Y-88287743D01*
X123097000Y-88287743D01*
X123097000Y-89553000D01*
X124030000Y-89553000D01*
X124030000Y-89053000D01*
X123900712Y-88657023D01*
X123629731Y-88340664D01*
X123260062Y-88160460D01*
X123097000Y-88287743D01*
X122843000Y-88287743D01*
X122679938Y-88160460D01*
X122310269Y-88340664D01*
X122039288Y-88657023D01*
X121910000Y-89053000D01*
X121594818Y-89053000D01*
X121579090Y-89028559D01*
X121366890Y-88883569D01*
X121115000Y-88832560D01*
X121100060Y-88832560D01*
X121100183Y-88691068D01*
X120939907Y-88303171D01*
X120643390Y-88006136D01*
X120255773Y-87845183D01*
X119836068Y-87844817D01*
X119448171Y-88005093D01*
X119395168Y-88058004D01*
X119343390Y-88006136D01*
X118955773Y-87845183D01*
X118536068Y-87844817D01*
X118148171Y-88005093D01*
X117851136Y-88301610D01*
X117690183Y-88689227D01*
X117689989Y-88911464D01*
X117569905Y-88961204D01*
X117542692Y-89168087D01*
X116880000Y-89168087D01*
X116880000Y-89053000D01*
X116750712Y-88657023D01*
X116479731Y-88340664D01*
X116110062Y-88160460D01*
X115947000Y-88287743D01*
X115693000Y-88287743D01*
X115529938Y-88160460D01*
X115160269Y-88340664D01*
X114889288Y-88657023D01*
X114760000Y-89053000D01*
X113105000Y-89053000D01*
X113105000Y-83260000D01*
X118035000Y-83260000D01*
X118035000Y-84455000D01*
X118035000Y-84455000D01*
G37*
X118035000Y-84455000D02*
X118089046Y-84726705D01*
X118242954Y-84957046D01*
X118473295Y-85110954D01*
X118745000Y-85165000D01*
X119380000Y-85165000D01*
X119651705Y-85110954D01*
X119882046Y-84957046D01*
X120035954Y-84726705D01*
X120090000Y-84455000D01*
X120090000Y-83260000D01*
X123355985Y-83260000D01*
X123218907Y-83396839D01*
X122931328Y-84089405D01*
X122930674Y-84839305D01*
X123217043Y-85532372D01*
X123746839Y-86063093D01*
X124439405Y-86350672D01*
X125189305Y-86351326D01*
X125882372Y-86064957D01*
X126413093Y-85535161D01*
X126700672Y-84842595D01*
X126701326Y-84092695D01*
X126414957Y-83399628D01*
X126275572Y-83260000D01*
X140208000Y-83260000D01*
X140208000Y-105410000D01*
X140218006Y-105459410D01*
X140246447Y-105501035D01*
X140288841Y-105528315D01*
X140335000Y-105537000D01*
X160580000Y-105537000D01*
X160580000Y-113590000D01*
X155650000Y-113590000D01*
X155650000Y-113030000D01*
X155595954Y-112758295D01*
X155448696Y-112537907D01*
X155508285Y-112526054D01*
X155990054Y-112204147D01*
X156311961Y-111722378D01*
X156425000Y-111154093D01*
X156425000Y-111095907D01*
X156311961Y-110527622D01*
X155990054Y-110045853D01*
X155704422Y-109855000D01*
X155990054Y-109664147D01*
X156311961Y-109182378D01*
X156425000Y-108614093D01*
X156425000Y-108555907D01*
X156311961Y-107987622D01*
X155990054Y-107505853D01*
X155508285Y-107183946D01*
X154940000Y-107070907D01*
X154371715Y-107183946D01*
X153889946Y-107505853D01*
X153670000Y-107835026D01*
X153450054Y-107505853D01*
X152968285Y-107183946D01*
X152400000Y-107070907D01*
X151831715Y-107183946D01*
X151349946Y-107505853D01*
X151130000Y-107835026D01*
X150910054Y-107505853D01*
X150428285Y-107183946D01*
X149860000Y-107070907D01*
X149291715Y-107183946D01*
X148809946Y-107505853D01*
X148782150Y-107547452D01*
X148773162Y-107499683D01*
X148634090Y-107283559D01*
X148421890Y-107138569D01*
X148170000Y-107087560D01*
X146470000Y-107087560D01*
X146234683Y-107131838D01*
X146018559Y-107270910D01*
X145873569Y-107483110D01*
X145822560Y-107735000D01*
X145822560Y-109435000D01*
X145866838Y-109670317D01*
X146005910Y-109886441D01*
X146218110Y-110031431D01*
X146332301Y-110054555D01*
X146124817Y-110243642D01*
X145878514Y-110768108D01*
X145999181Y-110998000D01*
X147193000Y-110998000D01*
X147193000Y-110978000D01*
X147447000Y-110978000D01*
X147447000Y-110998000D01*
X147467000Y-110998000D01*
X147467000Y-111252000D01*
X147447000Y-111252000D01*
X147447000Y-112445155D01*
X147676890Y-112566476D01*
X148086924Y-112396645D01*
X148515183Y-112006358D01*
X148582298Y-111863447D01*
X148809946Y-112204147D01*
X149291715Y-112526054D01*
X149860000Y-112639093D01*
X150428285Y-112526054D01*
X150910054Y-112204147D01*
X151130000Y-111874974D01*
X151349946Y-112204147D01*
X151831715Y-112526054D01*
X152400000Y-112639093D01*
X152968285Y-112526054D01*
X153450054Y-112204147D01*
X153670000Y-111874974D01*
X153889946Y-112204147D01*
X154118772Y-112357043D01*
X154033295Y-112374046D01*
X153802954Y-112527954D01*
X153649046Y-112758295D01*
X153595000Y-113030000D01*
X153595000Y-113590000D01*
X126358158Y-113590000D01*
X126413093Y-113535161D01*
X126700672Y-112842595D01*
X126701326Y-112092695D01*
X126448948Y-111481892D01*
X145878514Y-111481892D01*
X146124817Y-112006358D01*
X146553076Y-112396645D01*
X146963110Y-112566476D01*
X147193000Y-112445155D01*
X147193000Y-111252000D01*
X145999181Y-111252000D01*
X145878514Y-111481892D01*
X126448948Y-111481892D01*
X126414957Y-111399628D01*
X125885161Y-110868907D01*
X125192595Y-110581328D01*
X124442695Y-110580674D01*
X123749628Y-110867043D01*
X123218907Y-111396839D01*
X122931328Y-112089405D01*
X122930674Y-112839305D01*
X123217043Y-113532372D01*
X123274571Y-113590000D01*
X120090000Y-113590000D01*
X120090000Y-112395000D01*
X120035954Y-112123295D01*
X119882046Y-111892954D01*
X119651705Y-111739046D01*
X119380000Y-111685000D01*
X118745000Y-111685000D01*
X118473295Y-111739046D01*
X118242954Y-111892954D01*
X118089046Y-112123295D01*
X118035000Y-112395000D01*
X118035000Y-113590000D01*
X113105000Y-113590000D01*
X113105000Y-96002000D01*
X113326907Y-96002000D01*
X113439946Y-96570285D01*
X113761853Y-97052054D01*
X114091026Y-97272000D01*
X113761853Y-97491946D01*
X113439946Y-97973715D01*
X113326907Y-98542000D01*
X113439946Y-99110285D01*
X113761853Y-99592054D01*
X113803452Y-99619850D01*
X113755683Y-99628838D01*
X113539559Y-99767910D01*
X113394569Y-99980110D01*
X113343560Y-100232000D01*
X113343560Y-101932000D01*
X113387838Y-102167317D01*
X113526910Y-102383441D01*
X113739110Y-102528431D01*
X113991000Y-102579440D01*
X115691000Y-102579440D01*
X115926317Y-102535162D01*
X116142441Y-102396090D01*
X116287431Y-102183890D01*
X116338440Y-101932000D01*
X116338440Y-100232000D01*
X116294162Y-99996683D01*
X116155090Y-99780559D01*
X115942890Y-99635569D01*
X115875459Y-99621914D01*
X115920147Y-99592054D01*
X116242054Y-99110285D01*
X116355093Y-98542000D01*
X116242054Y-97973715D01*
X115920147Y-97491946D01*
X115590974Y-97272000D01*
X115920147Y-97052054D01*
X116242054Y-96570285D01*
X116355093Y-96002000D01*
X116242054Y-95433715D01*
X115920147Y-94951946D01*
X115438378Y-94630039D01*
X114870093Y-94517000D01*
X114811907Y-94517000D01*
X114243622Y-94630039D01*
X113761853Y-94951946D01*
X113439946Y-95433715D01*
X113326907Y-96002000D01*
X113105000Y-96002000D01*
X113105000Y-89807000D01*
X114760000Y-89807000D01*
X114760000Y-90307000D01*
X114889288Y-90702977D01*
X115160269Y-91019336D01*
X115529938Y-91199540D01*
X115693000Y-91072257D01*
X115693000Y-89807000D01*
X115947000Y-89807000D01*
X115947000Y-91072257D01*
X116110062Y-91199540D01*
X116479731Y-91019336D01*
X116750712Y-90702977D01*
X116880000Y-90307000D01*
X116880000Y-89807000D01*
X115947000Y-89807000D01*
X115693000Y-89807000D01*
X114760000Y-89807000D01*
X113105000Y-89807000D01*
X113105000Y-89774137D01*
X117026721Y-89774137D01*
X117059873Y-90192531D01*
X117156204Y-90425095D01*
X117363087Y-90452308D01*
X117915395Y-89900000D01*
X117363087Y-89347692D01*
X117156204Y-89374905D01*
X117026721Y-89774137D01*
X113105000Y-89774137D01*
X113105000Y-89053000D01*
X114760000Y-89053000D01*
X114760000Y-89553000D01*
X115693000Y-89553000D01*
X115693000Y-88287743D01*
X115947000Y-88287743D01*
X115947000Y-89553000D01*
X116880000Y-89553000D01*
X116880000Y-89168087D01*
X117542692Y-89168087D01*
X117835066Y-89460461D01*
X117850093Y-89496829D01*
X118146610Y-89793864D01*
X118232361Y-89829471D01*
X118288748Y-89885858D01*
X118274605Y-89900000D01*
X118288748Y-89914143D01*
X118109143Y-90093748D01*
X118095000Y-90079605D01*
X117542692Y-90631913D01*
X117569905Y-90838796D01*
X117969137Y-90968279D01*
X118387531Y-90935127D01*
X118620095Y-90838796D01*
X118645868Y-90642859D01*
X118796610Y-90793864D01*
X119184227Y-90954817D01*
X119603932Y-90955183D01*
X119900489Y-90832648D01*
X120023110Y-90916431D01*
X120275000Y-90967440D01*
X121115000Y-90967440D01*
X121350317Y-90923162D01*
X121566441Y-90784090D01*
X121711431Y-90571890D01*
X121762440Y-90320000D01*
X121762440Y-89807000D01*
X121910000Y-89807000D01*
X121910000Y-90307000D01*
X122039288Y-90702977D01*
X122310269Y-91019336D01*
X122679938Y-91199540D01*
X122843000Y-91072257D01*
X122843000Y-89807000D01*
X123097000Y-89807000D01*
X123097000Y-91072257D01*
X123260062Y-91199540D01*
X123629731Y-91019336D01*
X123900712Y-90702977D01*
X124030000Y-90307000D01*
X124030000Y-89807000D01*
X123097000Y-89807000D01*
X122843000Y-89807000D01*
X121910000Y-89807000D01*
X121762440Y-89807000D01*
X121762440Y-89480000D01*
X121718162Y-89244683D01*
X121594818Y-89053000D01*
X121910000Y-89053000D01*
X121910000Y-89553000D01*
X122843000Y-89553000D01*
X122843000Y-88287743D01*
X123097000Y-88287743D01*
X123097000Y-89553000D01*
X124030000Y-89553000D01*
X124030000Y-89053000D01*
X123900712Y-88657023D01*
X123629731Y-88340664D01*
X123260062Y-88160460D01*
X123097000Y-88287743D01*
X122843000Y-88287743D01*
X122679938Y-88160460D01*
X122310269Y-88340664D01*
X122039288Y-88657023D01*
X121910000Y-89053000D01*
X121594818Y-89053000D01*
X121579090Y-89028559D01*
X121366890Y-88883569D01*
X121115000Y-88832560D01*
X121100060Y-88832560D01*
X121100183Y-88691068D01*
X120939907Y-88303171D01*
X120643390Y-88006136D01*
X120255773Y-87845183D01*
X119836068Y-87844817D01*
X119448171Y-88005093D01*
X119395168Y-88058004D01*
X119343390Y-88006136D01*
X118955773Y-87845183D01*
X118536068Y-87844817D01*
X118148171Y-88005093D01*
X117851136Y-88301610D01*
X117690183Y-88689227D01*
X117689989Y-88911464D01*
X117569905Y-88961204D01*
X117542692Y-89168087D01*
X116880000Y-89168087D01*
X116880000Y-89053000D01*
X116750712Y-88657023D01*
X116479731Y-88340664D01*
X116110062Y-88160460D01*
X115947000Y-88287743D01*
X115693000Y-88287743D01*
X115529938Y-88160460D01*
X115160269Y-88340664D01*
X114889288Y-88657023D01*
X114760000Y-89053000D01*
X113105000Y-89053000D01*
X113105000Y-83260000D01*
X118035000Y-83260000D01*
X118035000Y-84455000D01*
M02*
