G04 #@! TF.FileFunction,Copper,L1,Top,Signal*
%FSLAX46Y46*%
G04 Gerber Fmt 4.6, Leading zero omitted, Abs format (unit mm)*
G04 Created by KiCad (PCBNEW 4.0.7) date 01/11/18 16:58:58*
%MOMM*%
%LPD*%
G01*
G04 APERTURE LIST*
%ADD10C,0.100000*%
%ADD11R,1.000000X0.900000*%
%ADD12R,1.300000X0.700000*%
%ADD13R,1.000000X1.600000*%
%ADD14R,0.840000X0.840000*%
%ADD15C,0.840000*%
%ADD16O,0.850000X1.850000*%
%ADD17R,2.200000X1.200000*%
%ADD18R,6.400000X5.800000*%
%ADD19R,3.050000X2.750000*%
%ADD20R,1.700000X1.700000*%
%ADD21O,1.700000X1.700000*%
%ADD22C,2.500000*%
%ADD23C,0.800000*%
%ADD24C,0.250000*%
%ADD25C,0.500000*%
G04 APERTURE END LIST*
D10*
D11*
X134150000Y-99550000D03*
X132550000Y-99550000D03*
X134150000Y-103650000D03*
X132550000Y-103650000D03*
D12*
X140208000Y-108900000D03*
X140208000Y-107000000D03*
D13*
X125730000Y-96520000D03*
X128730000Y-96520000D03*
X136906000Y-96520000D03*
X133906000Y-96520000D03*
D14*
X120695000Y-89900000D03*
D15*
X120045000Y-88900000D03*
X119395000Y-89900000D03*
X118745000Y-88900000D03*
X118095000Y-89900000D03*
D16*
X122970000Y-89680000D03*
X115820000Y-89680000D03*
D17*
X128931000Y-89413000D03*
X128931000Y-93973000D03*
D18*
X135231000Y-91693000D03*
D19*
X136906000Y-93218000D03*
X133556000Y-90168000D03*
X136906000Y-90168000D03*
X133556000Y-93218000D03*
D20*
X147320000Y-108585000D03*
D21*
X147320000Y-111125000D03*
X149860000Y-108585000D03*
X149860000Y-111125000D03*
X152400000Y-108585000D03*
X152400000Y-111125000D03*
X154940000Y-108585000D03*
X154940000Y-111125000D03*
D12*
X142240000Y-108900000D03*
X142240000Y-107000000D03*
X157480000Y-110485000D03*
X157480000Y-108585000D03*
D20*
X114841000Y-101082000D03*
D21*
X114841000Y-98542000D03*
X114841000Y-96002000D03*
D22*
X124816000Y-112466000D03*
X124816000Y-84466000D03*
D23*
X132556273Y-96561991D03*
X130175000Y-96520000D03*
X126758553Y-89411197D03*
D24*
X114841000Y-96002000D02*
X125507581Y-96002000D01*
X125507581Y-96002000D02*
X125730000Y-96224419D01*
X125730000Y-96224419D02*
X125730000Y-96520000D01*
D25*
X120695000Y-89900000D02*
X120695000Y-92914285D01*
X120695000Y-92914285D02*
X121753715Y-93973000D01*
X121753715Y-93973000D02*
X125730000Y-93973000D01*
X125730000Y-93973000D02*
X127331000Y-93973000D01*
X125730000Y-96520000D02*
X125730000Y-93973000D01*
X127331000Y-93973000D02*
X128931000Y-93973000D01*
D24*
X132550000Y-96568264D02*
X132556273Y-96561991D01*
D25*
X132598264Y-96520000D02*
X132556273Y-96561991D01*
D24*
X132550000Y-99550000D02*
X132550000Y-96568264D01*
D25*
X133906000Y-96520000D02*
X132598264Y-96520000D01*
D24*
X132550000Y-103650000D02*
X132550000Y-99550000D01*
D25*
X128730000Y-96520000D02*
X130175000Y-96520000D01*
X128931000Y-89413000D02*
X126760356Y-89413000D01*
X126760356Y-89413000D02*
X126758553Y-89411197D01*
D24*
X157480000Y-108585000D02*
X154940000Y-108585000D01*
X140208000Y-107000000D02*
X140208000Y-105887255D01*
X142240000Y-107000000D02*
X142240000Y-105885279D01*
D25*
X138303000Y-105887255D02*
X140208000Y-105887255D01*
X140208000Y-105887255D02*
X142238024Y-105887255D01*
X137473541Y-105887255D02*
X138303000Y-105887255D01*
D24*
X138176000Y-106014255D02*
X138303000Y-105887255D01*
D25*
X142238024Y-105887255D02*
X142240000Y-105885279D01*
X136906000Y-96520000D02*
X136906000Y-105319714D01*
X136906000Y-105319714D02*
X137473541Y-105887255D01*
X137473541Y-105887255D02*
X137475517Y-105885279D01*
X152240279Y-105885279D02*
X142240000Y-105885279D01*
X154940000Y-108585000D02*
X152240279Y-105885279D01*
X136906000Y-96520000D02*
X136906000Y-93218000D01*
D24*
X157480000Y-112141607D02*
X157039446Y-112582161D01*
X157039446Y-112582161D02*
X152400000Y-112582161D01*
X157480000Y-110485000D02*
X157480000Y-112141607D01*
X118227000Y-101082000D02*
X114841000Y-101082000D01*
X130179014Y-113034014D02*
X118227000Y-101082000D01*
X151948147Y-113034014D02*
X130179014Y-113034014D01*
X152400000Y-112582161D02*
X151948147Y-113034014D01*
X152400000Y-111125000D02*
X152400000Y-112582161D01*
X140335000Y-108900000D02*
X140335000Y-109591766D01*
X148523767Y-107250247D02*
X149858520Y-108585000D01*
X140335000Y-109591766D02*
X140669396Y-109926162D01*
X140669396Y-109926162D02*
X143370848Y-109926162D01*
X143370848Y-109926162D02*
X146046763Y-107250247D01*
X146046763Y-107250247D02*
X148523767Y-107250247D01*
X149858520Y-108585000D02*
X149860000Y-108585000D01*
X149010001Y-111974999D02*
X149860000Y-111125000D01*
X130365413Y-112584003D02*
X148400997Y-112584003D01*
X148400997Y-112584003D02*
X149010001Y-111974999D01*
X114841000Y-98542000D02*
X116323410Y-98542000D01*
X116323410Y-98542000D02*
X130365413Y-112584003D01*
X134150000Y-99550000D02*
X134150000Y-100250000D01*
X134150000Y-100250000D02*
X134150000Y-103650000D01*
X142240000Y-108900000D02*
X142240000Y-108300000D01*
X142240000Y-108300000D02*
X141886308Y-107946308D01*
X141886308Y-107946308D02*
X137589578Y-107946308D01*
X137589578Y-107946308D02*
X134150000Y-104506730D01*
X134150000Y-104506730D02*
X134150000Y-103650000D01*
X142240000Y-108900000D02*
X143742046Y-108900000D01*
X143742046Y-108900000D02*
X145841810Y-106800236D01*
X145841810Y-106800236D02*
X146005364Y-106800236D01*
X152400000Y-108585000D02*
X152400000Y-108577217D01*
X152400000Y-108577217D02*
X152386827Y-108590390D01*
X152386827Y-108590390D02*
X152386827Y-108568450D01*
X152386827Y-108568450D02*
X150618613Y-106800236D01*
X150618613Y-106800236D02*
X146005364Y-106800236D01*
M02*
