G04 #@! TF.FileFunction,Legend,Top*
%FSLAX46Y46*%
G04 Gerber Fmt 4.6, Leading zero omitted, Abs format (unit mm)*
G04 Created by KiCad (PCBNEW 4.0.7) date 01/23/18 00:00:34*
%MOMM*%
%LPD*%
G01*
G04 APERTURE LIST*
%ADD10C,0.100000*%
%ADD11C,0.150000*%
%ADD12C,0.125000*%
%ADD13C,0.300000*%
%ADD14C,0.120000*%
G04 APERTURE END LIST*
D10*
D11*
X130206905Y-88717381D02*
X129873571Y-88241190D01*
X129635476Y-88717381D02*
X129635476Y-87717381D01*
X130016429Y-87717381D01*
X130111667Y-87765000D01*
X130159286Y-87812619D01*
X130206905Y-87907857D01*
X130206905Y-88050714D01*
X130159286Y-88145952D01*
X130111667Y-88193571D01*
X130016429Y-88241190D01*
X129635476Y-88241190D01*
X131016429Y-88669762D02*
X130921191Y-88717381D01*
X130730714Y-88717381D01*
X130635476Y-88669762D01*
X130587857Y-88574524D01*
X130587857Y-88193571D01*
X130635476Y-88098333D01*
X130730714Y-88050714D01*
X130921191Y-88050714D01*
X131016429Y-88098333D01*
X131064048Y-88193571D01*
X131064048Y-88288810D01*
X130587857Y-88384048D01*
X131445000Y-88669762D02*
X131540238Y-88717381D01*
X131730714Y-88717381D01*
X131825953Y-88669762D01*
X131873572Y-88574524D01*
X131873572Y-88526905D01*
X131825953Y-88431667D01*
X131730714Y-88384048D01*
X131587857Y-88384048D01*
X131492619Y-88336429D01*
X131445000Y-88241190D01*
X131445000Y-88193571D01*
X131492619Y-88098333D01*
X131587857Y-88050714D01*
X131730714Y-88050714D01*
X131825953Y-88098333D01*
X132683096Y-88669762D02*
X132587858Y-88717381D01*
X132397381Y-88717381D01*
X132302143Y-88669762D01*
X132254524Y-88574524D01*
X132254524Y-88193571D01*
X132302143Y-88098333D01*
X132397381Y-88050714D01*
X132587858Y-88050714D01*
X132683096Y-88098333D01*
X132730715Y-88193571D01*
X132730715Y-88288810D01*
X132254524Y-88384048D01*
X133016429Y-88050714D02*
X133397381Y-88050714D01*
X133159286Y-87717381D02*
X133159286Y-88574524D01*
X133206905Y-88669762D01*
X133302143Y-88717381D01*
X133397381Y-88717381D01*
X157908524Y-94908619D02*
X157575191Y-93908619D01*
X157241857Y-94908619D01*
X156956143Y-94813381D02*
X156908524Y-94861000D01*
X156813286Y-94908619D01*
X156575190Y-94908619D01*
X156479952Y-94861000D01*
X156432333Y-94813381D01*
X156384714Y-94718143D01*
X156384714Y-94622905D01*
X156432333Y-94480048D01*
X157003762Y-93908619D01*
X156384714Y-93908619D01*
D12*
X159597286Y-111205427D02*
X158847286Y-111205427D01*
X159597286Y-110883998D02*
X159204429Y-110883998D01*
X159133000Y-110919712D01*
X159097286Y-110991141D01*
X159097286Y-111098284D01*
X159133000Y-111169712D01*
X159168714Y-111205427D01*
X159097286Y-110633998D02*
X159097286Y-110348284D01*
X158847286Y-110526856D02*
X159490143Y-110526856D01*
X159561571Y-110491141D01*
X159597286Y-110419713D01*
X159597286Y-110348284D01*
X159097286Y-110205427D02*
X159097286Y-109919713D01*
X158847286Y-110098285D02*
X159490143Y-110098285D01*
X159561571Y-110062570D01*
X159597286Y-109991142D01*
X159597286Y-109919713D01*
X159097286Y-109669714D02*
X159847286Y-109669714D01*
X159133000Y-109669714D02*
X159097286Y-109598285D01*
X159097286Y-109455428D01*
X159133000Y-109383999D01*
X159168714Y-109348285D01*
X159240143Y-109312571D01*
X159454429Y-109312571D01*
X159525857Y-109348285D01*
X159561571Y-109383999D01*
X159597286Y-109455428D01*
X159597286Y-109598285D01*
X159561571Y-109669714D01*
X159561571Y-109026857D02*
X159597286Y-108955428D01*
X159597286Y-108812571D01*
X159561571Y-108741143D01*
X159490143Y-108705428D01*
X159454429Y-108705428D01*
X159383000Y-108741143D01*
X159347286Y-108812571D01*
X159347286Y-108919714D01*
X159311571Y-108991143D01*
X159240143Y-109026857D01*
X159204429Y-109026857D01*
X159133000Y-108991143D01*
X159097286Y-108919714D01*
X159097286Y-108812571D01*
X159133000Y-108741143D01*
X159525857Y-108384000D02*
X159561571Y-108348285D01*
X159597286Y-108384000D01*
X159561571Y-108419714D01*
X159525857Y-108384000D01*
X159597286Y-108384000D01*
X159133000Y-108384000D02*
X159168714Y-108348285D01*
X159204429Y-108384000D01*
X159168714Y-108419714D01*
X159133000Y-108384000D01*
X159204429Y-108384000D01*
X158811571Y-107491142D02*
X159775857Y-108133999D01*
X158811571Y-106705428D02*
X159775857Y-107348285D01*
X159097286Y-106526857D02*
X159597286Y-106348286D01*
X159097286Y-106169714D01*
X159597286Y-105884000D02*
X158847286Y-105884000D01*
X159311571Y-105812571D02*
X159597286Y-105598285D01*
X159097286Y-105598285D02*
X159383000Y-105884000D01*
X158847286Y-105348285D02*
X158847286Y-104883999D01*
X159133000Y-105133999D01*
X159133000Y-105026857D01*
X159168714Y-104955428D01*
X159204429Y-104919714D01*
X159275857Y-104883999D01*
X159454429Y-104883999D01*
X159525857Y-104919714D01*
X159561571Y-104955428D01*
X159597286Y-105026857D01*
X159597286Y-105241142D01*
X159561571Y-105312571D01*
X159525857Y-105348285D01*
X159097286Y-104241142D02*
X159704429Y-104241142D01*
X159775857Y-104276856D01*
X159811571Y-104312571D01*
X159847286Y-104383999D01*
X159847286Y-104491142D01*
X159811571Y-104562571D01*
X159561571Y-104241142D02*
X159597286Y-104312571D01*
X159597286Y-104455428D01*
X159561571Y-104526856D01*
X159525857Y-104562571D01*
X159454429Y-104598285D01*
X159240143Y-104598285D01*
X159168714Y-104562571D01*
X159133000Y-104526856D01*
X159097286Y-104455428D01*
X159097286Y-104312571D01*
X159133000Y-104241142D01*
X159597286Y-103776857D02*
X159561571Y-103848285D01*
X159525857Y-103884000D01*
X159454429Y-103919714D01*
X159240143Y-103919714D01*
X159168714Y-103884000D01*
X159133000Y-103848285D01*
X159097286Y-103776857D01*
X159097286Y-103669714D01*
X159133000Y-103598285D01*
X159168714Y-103562571D01*
X159240143Y-103526857D01*
X159454429Y-103526857D01*
X159525857Y-103562571D01*
X159561571Y-103598285D01*
X159597286Y-103669714D01*
X159597286Y-103776857D01*
X159525857Y-103205429D02*
X159561571Y-103169714D01*
X159597286Y-103205429D01*
X159561571Y-103241143D01*
X159525857Y-103205429D01*
X159597286Y-103205429D01*
X159561571Y-102526857D02*
X159597286Y-102598286D01*
X159597286Y-102741143D01*
X159561571Y-102812571D01*
X159525857Y-102848286D01*
X159454429Y-102884000D01*
X159240143Y-102884000D01*
X159168714Y-102848286D01*
X159133000Y-102812571D01*
X159097286Y-102741143D01*
X159097286Y-102598286D01*
X159133000Y-102526857D01*
X159597286Y-102098286D02*
X159561571Y-102169714D01*
X159525857Y-102205429D01*
X159454429Y-102241143D01*
X159240143Y-102241143D01*
X159168714Y-102205429D01*
X159133000Y-102169714D01*
X159097286Y-102098286D01*
X159097286Y-101991143D01*
X159133000Y-101919714D01*
X159168714Y-101884000D01*
X159240143Y-101848286D01*
X159454429Y-101848286D01*
X159525857Y-101884000D01*
X159561571Y-101919714D01*
X159597286Y-101991143D01*
X159597286Y-102098286D01*
X159597286Y-101526858D02*
X159097286Y-101526858D01*
X159168714Y-101526858D02*
X159133000Y-101491143D01*
X159097286Y-101419715D01*
X159097286Y-101312572D01*
X159133000Y-101241143D01*
X159204429Y-101205429D01*
X159597286Y-101205429D01*
X159204429Y-101205429D02*
X159133000Y-101169715D01*
X159097286Y-101098286D01*
X159097286Y-100991143D01*
X159133000Y-100919715D01*
X159204429Y-100884000D01*
X159597286Y-100884000D01*
X158811571Y-99991143D02*
X159775857Y-100634000D01*
X159097286Y-99741144D02*
X159847286Y-99741144D01*
X159133000Y-99741144D02*
X159097286Y-99669715D01*
X159097286Y-99526858D01*
X159133000Y-99455429D01*
X159168714Y-99419715D01*
X159240143Y-99384001D01*
X159454429Y-99384001D01*
X159525857Y-99419715D01*
X159561571Y-99455429D01*
X159597286Y-99526858D01*
X159597286Y-99669715D01*
X159561571Y-99741144D01*
X158811571Y-98526858D02*
X159775857Y-99169715D01*
X159597286Y-98276859D02*
X159097286Y-98276859D01*
X159168714Y-98276859D02*
X159133000Y-98241144D01*
X159097286Y-98169716D01*
X159097286Y-98062573D01*
X159133000Y-97991144D01*
X159204429Y-97955430D01*
X159597286Y-97955430D01*
X159204429Y-97955430D02*
X159133000Y-97919716D01*
X159097286Y-97848287D01*
X159097286Y-97741144D01*
X159133000Y-97669716D01*
X159204429Y-97634001D01*
X159597286Y-97634001D01*
X159561571Y-97312573D02*
X159597286Y-97241144D01*
X159597286Y-97098287D01*
X159561571Y-97026859D01*
X159490143Y-96991144D01*
X159454429Y-96991144D01*
X159383000Y-97026859D01*
X159347286Y-97098287D01*
X159347286Y-97205430D01*
X159311571Y-97276859D01*
X159240143Y-97312573D01*
X159204429Y-97312573D01*
X159133000Y-97276859D01*
X159097286Y-97205430D01*
X159097286Y-97098287D01*
X159133000Y-97026859D01*
X159597286Y-96276858D02*
X159597286Y-96705430D01*
X159597286Y-96491144D02*
X158847286Y-96491144D01*
X158954429Y-96562573D01*
X159025857Y-96634001D01*
X159061571Y-96705430D01*
D11*
X116387809Y-88717381D02*
X116387809Y-87717381D01*
X116768762Y-87717381D01*
X116864000Y-87765000D01*
X116911619Y-87812619D01*
X116959238Y-87907857D01*
X116959238Y-88050714D01*
X116911619Y-88145952D01*
X116864000Y-88193571D01*
X116768762Y-88241190D01*
X116387809Y-88241190D01*
X117530666Y-88717381D02*
X117435428Y-88669762D01*
X117387809Y-88622143D01*
X117340190Y-88526905D01*
X117340190Y-88241190D01*
X117387809Y-88145952D01*
X117435428Y-88098333D01*
X117530666Y-88050714D01*
X117673524Y-88050714D01*
X117768762Y-88098333D01*
X117816381Y-88145952D01*
X117864000Y-88241190D01*
X117864000Y-88526905D01*
X117816381Y-88622143D01*
X117768762Y-88669762D01*
X117673524Y-88717381D01*
X117530666Y-88717381D01*
X118197333Y-88050714D02*
X118387809Y-88717381D01*
X118578286Y-88241190D01*
X118768762Y-88717381D01*
X118959238Y-88050714D01*
X119721143Y-88669762D02*
X119625905Y-88717381D01*
X119435428Y-88717381D01*
X119340190Y-88669762D01*
X119292571Y-88574524D01*
X119292571Y-88193571D01*
X119340190Y-88098333D01*
X119435428Y-88050714D01*
X119625905Y-88050714D01*
X119721143Y-88098333D01*
X119768762Y-88193571D01*
X119768762Y-88288810D01*
X119292571Y-88384048D01*
X120197333Y-88717381D02*
X120197333Y-88050714D01*
X120197333Y-88241190D02*
X120244952Y-88145952D01*
X120292571Y-88098333D01*
X120387809Y-88050714D01*
X120483048Y-88050714D01*
D13*
X153732571Y-111617143D02*
X155232571Y-111117143D01*
X153732571Y-110617143D01*
X155232571Y-110117143D02*
X153732571Y-110117143D01*
X155232571Y-109260000D02*
X154375429Y-109902857D01*
X153732571Y-109260000D02*
X154589714Y-110117143D01*
X153732571Y-108760000D02*
X153732571Y-107831429D01*
X154304000Y-108331429D01*
X154304000Y-108117143D01*
X154375429Y-107974286D01*
X154446857Y-107902857D01*
X154589714Y-107831429D01*
X154946857Y-107831429D01*
X155089714Y-107902857D01*
X155161143Y-107974286D01*
X155232571Y-108117143D01*
X155232571Y-108545715D01*
X155161143Y-108688572D01*
X155089714Y-108760000D01*
X153804000Y-106402858D02*
X153732571Y-106545715D01*
X153732571Y-106760001D01*
X153804000Y-106974286D01*
X153946857Y-107117144D01*
X154089714Y-107188572D01*
X154375429Y-107260001D01*
X154589714Y-107260001D01*
X154875429Y-107188572D01*
X155018286Y-107117144D01*
X155161143Y-106974286D01*
X155232571Y-106760001D01*
X155232571Y-106617144D01*
X155161143Y-106402858D01*
X155089714Y-106331429D01*
X154589714Y-106331429D01*
X154589714Y-106617144D01*
X153732571Y-105402858D02*
X153732571Y-105117144D01*
X153804000Y-104974286D01*
X153946857Y-104831429D01*
X154232571Y-104760001D01*
X154732571Y-104760001D01*
X155018286Y-104831429D01*
X155161143Y-104974286D01*
X155232571Y-105117144D01*
X155232571Y-105402858D01*
X155161143Y-105545715D01*
X155018286Y-105688572D01*
X154732571Y-105760001D01*
X154232571Y-105760001D01*
X153946857Y-105688572D01*
X153804000Y-105545715D01*
X153732571Y-105402858D01*
X157782571Y-111402857D02*
X156282571Y-111402857D01*
X157354000Y-110902857D01*
X156282571Y-110402857D01*
X157782571Y-110402857D01*
X157782571Y-109474285D02*
X157711143Y-109617143D01*
X157639714Y-109688571D01*
X157496857Y-109760000D01*
X157068286Y-109760000D01*
X156925429Y-109688571D01*
X156854000Y-109617143D01*
X156782571Y-109474285D01*
X156782571Y-109260000D01*
X156854000Y-109117143D01*
X156925429Y-109045714D01*
X157068286Y-108974285D01*
X157496857Y-108974285D01*
X157639714Y-109045714D01*
X157711143Y-109117143D01*
X157782571Y-109260000D01*
X157782571Y-109474285D01*
X156782571Y-108545714D02*
X156782571Y-107974285D01*
X156282571Y-108331428D02*
X157568286Y-108331428D01*
X157711143Y-108260000D01*
X157782571Y-108117142D01*
X157782571Y-107974285D01*
X157782571Y-107474285D02*
X156782571Y-107474285D01*
X156282571Y-107474285D02*
X156354000Y-107545714D01*
X156425429Y-107474285D01*
X156354000Y-107402857D01*
X156282571Y-107474285D01*
X156425429Y-107474285D01*
X157782571Y-106545713D02*
X157711143Y-106688571D01*
X157639714Y-106759999D01*
X157496857Y-106831428D01*
X157068286Y-106831428D01*
X156925429Y-106759999D01*
X156854000Y-106688571D01*
X156782571Y-106545713D01*
X156782571Y-106331428D01*
X156854000Y-106188571D01*
X156925429Y-106117142D01*
X157068286Y-106045713D01*
X157496857Y-106045713D01*
X157639714Y-106117142D01*
X157711143Y-106188571D01*
X157782571Y-106331428D01*
X157782571Y-106545713D01*
X156782571Y-105402856D02*
X157782571Y-105402856D01*
X156925429Y-105402856D02*
X156854000Y-105331428D01*
X156782571Y-105188570D01*
X156782571Y-104974285D01*
X156854000Y-104831428D01*
X156996857Y-104759999D01*
X157782571Y-104759999D01*
X157711143Y-102974285D02*
X157782571Y-102759999D01*
X157782571Y-102402856D01*
X157711143Y-102259999D01*
X157639714Y-102188570D01*
X157496857Y-102117142D01*
X157354000Y-102117142D01*
X157211143Y-102188570D01*
X157139714Y-102259999D01*
X157068286Y-102402856D01*
X156996857Y-102688570D01*
X156925429Y-102831428D01*
X156854000Y-102902856D01*
X156711143Y-102974285D01*
X156568286Y-102974285D01*
X156425429Y-102902856D01*
X156354000Y-102831428D01*
X156282571Y-102688570D01*
X156282571Y-102331428D01*
X156354000Y-102117142D01*
X157711143Y-100902857D02*
X157782571Y-101045714D01*
X157782571Y-101331428D01*
X157711143Y-101474285D01*
X157568286Y-101545714D01*
X156996857Y-101545714D01*
X156854000Y-101474285D01*
X156782571Y-101331428D01*
X156782571Y-101045714D01*
X156854000Y-100902857D01*
X156996857Y-100831428D01*
X157139714Y-100831428D01*
X157282571Y-101545714D01*
X156782571Y-100188571D02*
X157782571Y-100188571D01*
X156925429Y-100188571D02*
X156854000Y-100117143D01*
X156782571Y-99974285D01*
X156782571Y-99760000D01*
X156854000Y-99617143D01*
X156996857Y-99545714D01*
X157782571Y-99545714D01*
X157711143Y-98902857D02*
X157782571Y-98760000D01*
X157782571Y-98474285D01*
X157711143Y-98331428D01*
X157568286Y-98260000D01*
X157496857Y-98260000D01*
X157354000Y-98331428D01*
X157282571Y-98474285D01*
X157282571Y-98688571D01*
X157211143Y-98831428D01*
X157068286Y-98902857D01*
X156996857Y-98902857D01*
X156854000Y-98831428D01*
X156782571Y-98688571D01*
X156782571Y-98474285D01*
X156854000Y-98331428D01*
X157782571Y-97402856D02*
X157711143Y-97545714D01*
X157639714Y-97617142D01*
X157496857Y-97688571D01*
X157068286Y-97688571D01*
X156925429Y-97617142D01*
X156854000Y-97545714D01*
X156782571Y-97402856D01*
X156782571Y-97188571D01*
X156854000Y-97045714D01*
X156925429Y-96974285D01*
X157068286Y-96902856D01*
X157496857Y-96902856D01*
X157639714Y-96974285D01*
X157711143Y-97045714D01*
X157782571Y-97188571D01*
X157782571Y-97402856D01*
X157782571Y-96259999D02*
X156782571Y-96259999D01*
X157068286Y-96259999D02*
X156925429Y-96188571D01*
X156854000Y-96117142D01*
X156782571Y-95974285D01*
X156782571Y-95831428D01*
D14*
X133790000Y-91020000D02*
X133790000Y-90920000D01*
X129390000Y-92520000D02*
X133790000Y-92520000D01*
X133790000Y-89420000D02*
X129390000Y-89420000D01*
X129390000Y-91020000D02*
X129390000Y-90920000D01*
X139455000Y-88550000D02*
X139455000Y-87350000D01*
X141215000Y-87350000D02*
X141215000Y-88550000D01*
X119765000Y-99425000D02*
X119765000Y-97425000D01*
X117725000Y-97425000D02*
X117725000Y-99425000D01*
X128520000Y-97425000D02*
X128520000Y-99425000D01*
X130560000Y-99425000D02*
X130560000Y-97425000D01*
D11*
X116403000Y-89773000D02*
X116403000Y-89298000D01*
X116403000Y-89298000D02*
X124703000Y-89298000D01*
X124703000Y-89298000D02*
X124703000Y-89773000D01*
X116403000Y-92023000D02*
X116403000Y-92498000D01*
X116403000Y-92498000D02*
X124703000Y-92498000D01*
X124703000Y-92498000D02*
X124703000Y-92023000D01*
X118253000Y-88998000D02*
X120253000Y-88998000D01*
D14*
X127650000Y-100385000D02*
X127650000Y-98885000D01*
X127650000Y-98885000D02*
X127380000Y-98885000D01*
X127380000Y-98885000D02*
X127380000Y-96055000D01*
X120750000Y-100385000D02*
X120750000Y-98885000D01*
X120750000Y-98885000D02*
X121020000Y-98885000D01*
X121020000Y-98885000D02*
X121020000Y-97785000D01*
X137550000Y-88545000D02*
X137550000Y-87345000D01*
X139310000Y-87345000D02*
X139310000Y-88545000D01*
X141360000Y-88550000D02*
X141360000Y-87350000D01*
X143120000Y-87350000D02*
X143120000Y-88550000D01*
D11*
X140787381Y-90976666D02*
X140311190Y-91310000D01*
X140787381Y-91548095D02*
X139787381Y-91548095D01*
X139787381Y-91167142D01*
X139835000Y-91071904D01*
X139882619Y-91024285D01*
X139977857Y-90976666D01*
X140120714Y-90976666D01*
X140215952Y-91024285D01*
X140263571Y-91071904D01*
X140311190Y-91167142D01*
X140311190Y-91548095D01*
X139882619Y-90595714D02*
X139835000Y-90548095D01*
X139787381Y-90452857D01*
X139787381Y-90214761D01*
X139835000Y-90119523D01*
X139882619Y-90071904D01*
X139977857Y-90024285D01*
X140073095Y-90024285D01*
X140215952Y-90071904D01*
X140787381Y-90643333D01*
X140787381Y-90024285D01*
X118578334Y-95885143D02*
X118530715Y-95932762D01*
X118387858Y-95980381D01*
X118292620Y-95980381D01*
X118149762Y-95932762D01*
X118054524Y-95837524D01*
X118006905Y-95742286D01*
X117959286Y-95551810D01*
X117959286Y-95408952D01*
X118006905Y-95218476D01*
X118054524Y-95123238D01*
X118149762Y-95028000D01*
X118292620Y-94980381D01*
X118387858Y-94980381D01*
X118530715Y-95028000D01*
X118578334Y-95075619D01*
X119530715Y-95980381D02*
X118959286Y-95980381D01*
X119245000Y-95980381D02*
X119245000Y-94980381D01*
X119149762Y-95123238D01*
X119054524Y-95218476D01*
X118959286Y-95266095D01*
X129373334Y-95861143D02*
X129325715Y-95908762D01*
X129182858Y-95956381D01*
X129087620Y-95956381D01*
X128944762Y-95908762D01*
X128849524Y-95813524D01*
X128801905Y-95718286D01*
X128754286Y-95527810D01*
X128754286Y-95384952D01*
X128801905Y-95194476D01*
X128849524Y-95099238D01*
X128944762Y-95004000D01*
X129087620Y-94956381D01*
X129182858Y-94956381D01*
X129325715Y-95004000D01*
X129373334Y-95051619D01*
X129754286Y-95051619D02*
X129801905Y-95004000D01*
X129897143Y-94956381D01*
X130135239Y-94956381D01*
X130230477Y-95004000D01*
X130278096Y-95051619D01*
X130325715Y-95146857D01*
X130325715Y-95242095D01*
X130278096Y-95384952D01*
X129706667Y-95956381D01*
X130325715Y-95956381D01*
X123444095Y-94956381D02*
X123444095Y-95765905D01*
X123491714Y-95861143D01*
X123539333Y-95908762D01*
X123634571Y-95956381D01*
X123825048Y-95956381D01*
X123920286Y-95908762D01*
X123967905Y-95861143D01*
X124015524Y-95765905D01*
X124015524Y-94956381D01*
X125015524Y-95956381D02*
X124444095Y-95956381D01*
X124729809Y-95956381D02*
X124729809Y-94956381D01*
X124634571Y-95099238D01*
X124539333Y-95194476D01*
X124444095Y-95242095D01*
X138882381Y-90971666D02*
X138406190Y-91305000D01*
X138882381Y-91543095D02*
X137882381Y-91543095D01*
X137882381Y-91162142D01*
X137930000Y-91066904D01*
X137977619Y-91019285D01*
X138072857Y-90971666D01*
X138215714Y-90971666D01*
X138310952Y-91019285D01*
X138358571Y-91066904D01*
X138406190Y-91162142D01*
X138406190Y-91543095D01*
X138882381Y-90019285D02*
X138882381Y-90590714D01*
X138882381Y-90305000D02*
X137882381Y-90305000D01*
X138025238Y-90400238D01*
X138120476Y-90495476D01*
X138168095Y-90590714D01*
X142692381Y-90971666D02*
X142216190Y-91305000D01*
X142692381Y-91543095D02*
X141692381Y-91543095D01*
X141692381Y-91162142D01*
X141740000Y-91066904D01*
X141787619Y-91019285D01*
X141882857Y-90971666D01*
X142025714Y-90971666D01*
X142120952Y-91019285D01*
X142168571Y-91066904D01*
X142216190Y-91162142D01*
X142216190Y-91543095D01*
X141692381Y-90638333D02*
X141692381Y-90019285D01*
X142073333Y-90352619D01*
X142073333Y-90209761D01*
X142120952Y-90114523D01*
X142168571Y-90066904D01*
X142263810Y-90019285D01*
X142501905Y-90019285D01*
X142597143Y-90066904D01*
X142644762Y-90114523D01*
X142692381Y-90209761D01*
X142692381Y-90495476D01*
X142644762Y-90590714D01*
X142597143Y-90638333D01*
M02*
