G04 #@! TF.FileFunction,Profile,NP*
%FSLAX46Y46*%
G04 Gerber Fmt 4.6, Leading zero omitted, Abs format (unit mm)*
G04 Created by KiCad (PCBNEW 4.0.7) date 01/11/18 16:58:58*
%MOMM*%
%LPD*%
G01*
G04 APERTURE LIST*
%ADD10C,0.100000*%
%ADD11C,0.150000*%
G04 APERTURE END LIST*
D10*
D11*
X154940000Y-114300000D02*
X161290000Y-114300000D01*
X154940000Y-113030000D02*
X154940000Y-114300000D01*
X154305000Y-113030000D02*
X154940000Y-113030000D01*
X118745000Y-114300000D02*
X112395000Y-114300000D01*
X118745000Y-112395000D02*
X118745000Y-114300000D01*
X119380000Y-112395000D02*
X118745000Y-112395000D01*
X154940000Y-82550000D02*
X161290000Y-82550000D01*
X154940000Y-83820000D02*
X154940000Y-82550000D01*
X154305000Y-83820000D02*
X154940000Y-83820000D01*
X118745000Y-82550000D02*
X112395000Y-82550000D01*
X118745000Y-84455000D02*
X118745000Y-82550000D01*
X119380000Y-84455000D02*
X118745000Y-84455000D01*
X161290000Y-82550000D02*
X161290000Y-114300000D01*
X119380000Y-82550000D02*
X154305000Y-82550000D01*
X112395000Y-114300000D02*
X112395000Y-82550000D01*
X154305000Y-114300000D02*
X119380000Y-114300000D01*
X154305000Y-82550000D02*
X154305000Y-83820000D01*
X154305000Y-114300000D02*
X154305000Y-113030000D01*
X119380000Y-114300000D02*
X119380000Y-112395000D01*
X119380000Y-82550000D02*
X119380000Y-84455000D01*
M02*
