G04 #@! TF.FileFunction,Legend,Bot*
%FSLAX46Y46*%
G04 Gerber Fmt 4.6, Leading zero omitted, Abs format (unit mm)*
G04 Created by KiCad (PCBNEW 4.0.7) date 01/11/18 16:58:58*
%MOMM*%
%LPD*%
G01*
G04 APERTURE LIST*
%ADD10C,0.100000*%
%ADD11C,0.150000*%
%ADD12C,0.120000*%
G04 APERTURE END LIST*
D10*
D11*
X118947429Y-95938571D02*
X118376000Y-95938571D01*
X118661714Y-96224286D02*
X118661714Y-95652857D01*
X117661715Y-95474286D02*
X118018858Y-95474286D01*
X118054572Y-95831429D01*
X118018858Y-95795714D01*
X117947429Y-95760000D01*
X117768858Y-95760000D01*
X117697429Y-95795714D01*
X117661715Y-95831429D01*
X117626000Y-95902857D01*
X117626000Y-96081429D01*
X117661715Y-96152857D01*
X117697429Y-96188571D01*
X117768858Y-96224286D01*
X117947429Y-96224286D01*
X118018858Y-96188571D01*
X118054572Y-96152857D01*
X117411714Y-95474286D02*
X117161714Y-96224286D01*
X116911714Y-95474286D01*
X120507143Y-98728571D02*
X120400000Y-98764286D01*
X120221429Y-98764286D01*
X120150000Y-98728571D01*
X120114286Y-98692857D01*
X120078571Y-98621429D01*
X120078571Y-98550000D01*
X120114286Y-98478571D01*
X120150000Y-98442857D01*
X120221429Y-98407143D01*
X120364286Y-98371429D01*
X120435714Y-98335714D01*
X120471429Y-98300000D01*
X120507143Y-98228571D01*
X120507143Y-98157143D01*
X120471429Y-98085714D01*
X120435714Y-98050000D01*
X120364286Y-98014286D01*
X120185714Y-98014286D01*
X120078571Y-98050000D01*
X119471428Y-98728571D02*
X119542857Y-98764286D01*
X119685714Y-98764286D01*
X119757143Y-98728571D01*
X119792857Y-98657143D01*
X119792857Y-98371429D01*
X119757143Y-98300000D01*
X119685714Y-98264286D01*
X119542857Y-98264286D01*
X119471428Y-98300000D01*
X119435714Y-98371429D01*
X119435714Y-98442857D01*
X119792857Y-98514286D01*
X119114286Y-98264286D02*
X119114286Y-98764286D01*
X119114286Y-98335714D02*
X119078571Y-98300000D01*
X119007143Y-98264286D01*
X118900000Y-98264286D01*
X118828571Y-98300000D01*
X118792857Y-98371429D01*
X118792857Y-98764286D01*
X118471429Y-98728571D02*
X118400000Y-98764286D01*
X118257143Y-98764286D01*
X118185715Y-98728571D01*
X118150000Y-98657143D01*
X118150000Y-98621429D01*
X118185715Y-98550000D01*
X118257143Y-98514286D01*
X118364286Y-98514286D01*
X118435715Y-98478571D01*
X118471429Y-98407143D01*
X118471429Y-98371429D01*
X118435715Y-98300000D01*
X118364286Y-98264286D01*
X118257143Y-98264286D01*
X118185715Y-98300000D01*
X117721429Y-98764286D02*
X117792857Y-98728571D01*
X117828572Y-98692857D01*
X117864286Y-98621429D01*
X117864286Y-98407143D01*
X117828572Y-98335714D01*
X117792857Y-98300000D01*
X117721429Y-98264286D01*
X117614286Y-98264286D01*
X117542857Y-98300000D01*
X117507143Y-98335714D01*
X117471429Y-98407143D01*
X117471429Y-98621429D01*
X117507143Y-98692857D01*
X117542857Y-98728571D01*
X117614286Y-98764286D01*
X117721429Y-98764286D01*
X117150001Y-98764286D02*
X117150001Y-98264286D01*
X117150001Y-98407143D02*
X117114286Y-98335714D01*
X117078572Y-98300000D01*
X117007143Y-98264286D01*
X116935715Y-98264286D01*
X118554571Y-100717000D02*
X118626000Y-100681286D01*
X118733143Y-100681286D01*
X118840286Y-100717000D01*
X118911714Y-100788429D01*
X118947429Y-100859857D01*
X118983143Y-101002714D01*
X118983143Y-101109857D01*
X118947429Y-101252714D01*
X118911714Y-101324143D01*
X118840286Y-101395571D01*
X118733143Y-101431286D01*
X118661714Y-101431286D01*
X118554571Y-101395571D01*
X118518857Y-101359857D01*
X118518857Y-101109857D01*
X118661714Y-101109857D01*
X118197429Y-101431286D02*
X118197429Y-100681286D01*
X117768857Y-101431286D01*
X117768857Y-100681286D01*
X117411715Y-101431286D02*
X117411715Y-100681286D01*
X117233143Y-100681286D01*
X117126000Y-100717000D01*
X117054572Y-100788429D01*
X117018857Y-100859857D01*
X116983143Y-101002714D01*
X116983143Y-101109857D01*
X117018857Y-101252714D01*
X117054572Y-101324143D01*
X117126000Y-101395571D01*
X117233143Y-101431286D01*
X117411715Y-101431286D01*
D12*
X113511000Y-99812000D02*
X113511000Y-94672000D01*
X113511000Y-94672000D02*
X116171000Y-94672000D01*
X116171000Y-94672000D02*
X116171000Y-99812000D01*
X116171000Y-99812000D02*
X113511000Y-99812000D01*
X113511000Y-101082000D02*
X113511000Y-102412000D01*
X113511000Y-102412000D02*
X114841000Y-102412000D01*
M02*
